;PTH Drill file created by EasyEDA 
M48
INCH,LZ
;Holesize 1 = 0.025 INCH
T01C0.025
;Holesize 2 = 0.028 INCH
T02C0.028
;Holesize 3 = 0.030 INCH
T03C0.030
;Holesize 4 = 0.032 INCH
T04C0.032
;Holesize 5 = 0.035 INCH
T05C0.035
;Holesize 6 = 0.036 INCH
T06C0.036
;Holesize 7 = 0.040 INCH
T07C0.040
;Holesize 8 = 0.050 INCH
T08C0.050
;Holesize 9 = 0.051 INCH
T09C0.051
%
G05
G90
T01
X046200Y009500
X047200Y009500
X046000Y018400
X047000Y018400
X045900Y027300
X046900Y027300
X046100Y036000
X047100Y036000
X005600Y039200
X005600Y036200
X005400Y034700
X005400Y031700
X005600Y030200
X005600Y027200
X007200Y039200
X007200Y036200
X007200Y034700
X007200Y031700
X007200Y027200
X007200Y030200
X005900Y022600
X005900Y019600
X006000Y017500
X006000Y014500
X005800Y012500
X005800Y009500
X005900Y007000
X005900Y004000
X007400Y022600
X007400Y019600
X007300Y014500
X007300Y017500
X007300Y009500
X007300Y012500
X007300Y002700
X007300Y005700
T02
X049500Y010200
X049500Y007200
X049200Y019200
X049200Y016200
X049400Y029100
X049400Y026100
X049300Y036900
X049300Y033900
X011200Y017400
X011200Y016400
X011200Y013400
X011200Y012400
X011200Y015400
X011200Y014400
X011200Y011400
X011200Y010400
X014200Y010400
X014200Y011400
X014200Y012400
X014200Y013400
X014200Y014400
X014200Y015400
X014200Y016400
X014200Y017400
X011300Y035600
X011300Y034600
X011300Y033600
X011300Y032600
X011300Y031600
X011300Y030600
X011300Y029600
X014300Y029600
X014300Y030600
X014300Y031600
X014300Y032600
X014300Y033600
X014300Y034600
X014300Y035600
T03
X029700Y024507G85X029700Y024492
X029700Y023500
X029700Y022500
X029700Y021500
X029700Y020500
X029700Y019500
X029700Y018500
X029700Y017500
X029700Y016500
X029700Y015500
X029700Y014500
X029700Y013500
X029700Y012500
X029700Y011500
X029700Y010500
X035700Y024500
X035700Y023500
X035700Y022500
X035700Y021500
X035700Y020500
X035700Y019500
X035700Y018500
X035700Y017500
X035700Y016500
X035700Y015500
X035700Y014500
X035700Y013500
X035700Y012500
X035700Y011500
X035700Y010500
X038900Y005100
X038900Y008100
X039200Y016000
X039200Y019000
X036600Y027900
X039600Y027900
X036600Y029200
X039600Y029200
X043700Y005300
X040700Y005300
X044100Y014000
X041100Y014000
X044000Y024700
X041000Y024700
X044500Y032200
X041500Y032200
X042200Y010700
X040700Y009400
X042200Y008100
X043700Y020300
X042200Y019000
X043700Y017700
X043200Y029200
X041700Y027900
X043200Y026600
X043700Y037700
X042200Y036400
X043700Y035100
X045500Y005300
X048500Y005300
X046900Y014300
X049900Y014300
X046000Y024700
X049000Y024700
X045800Y032200
X048800Y032200
X018300Y033400
X019300Y033400
X021400Y038400
X021400Y037021
X030200Y036800
X030200Y035421
X017400Y039300
X017400Y037300
X035400Y037400
X035400Y039400
X023400Y021900
X020400Y021900
X023400Y017400
X020400Y017400
X023400Y012800
X020400Y012800
X023400Y008300
X020400Y008300
X018600Y020400
X017600Y020400
X018600Y016000
X017600Y016000
X018500Y011500
X017500Y011500
X018500Y006600
X017500Y006600
X023400Y019800
X020400Y019800
X023400Y015200
X020400Y015200
X023400Y010700
X020400Y010700
X023400Y006200
X020400Y006200
T04
X009800Y032600
X009800Y034600
X010000Y026400
X022000Y018600
X022000Y014000
X022000Y009500
X024500Y018600
X032500Y017500
X024500Y014000
X024500Y009500
X033700Y022200
X033700Y026700
X034600Y022200
X034600Y026700
X009800Y030200
X033600Y017500
X032600Y026700
X037900Y023500
X040000Y023500
X040000Y021500
X043700Y021500
X034600Y017500
T05
X025100Y040000
X025100Y036950
T06
X046680Y040300
X044719Y040300
T07
X021601Y031198
X021601Y030198
X021601Y029198
T08
X063500Y006563
X063500Y008530
X063500Y010500
X063400Y015663
X063400Y017630
X063400Y019600
X063400Y024563
X063400Y026530
X063400Y028500
X063400Y033463
X063400Y035430
X063400Y037400
X052204Y008553
X052992Y011013
X057793Y011013
X057785Y006092
X052992Y006092
X052104Y017653
X052892Y020113
X057693Y020113
X057685Y015192
X052892Y015192
X052104Y026653
X052892Y029113
X057693Y029113
X057685Y024192
X052892Y024192
X052104Y035453
X052892Y037913
X057693Y037913
X057685Y032992
X052892Y032992
X029400Y041450
X002550Y039000
X002550Y037030
X002550Y034200
X002550Y032230
X002550Y029200
X002550Y027230
X002550Y022500
X002550Y020530
X002550Y017500
X002550Y015530
X002650Y011900
X002650Y009930
X002650Y006900
X002650Y004930
T09
X031368Y041450
M30
