G04 ---------------------------- Layer name :TOP SILK LAYER*
G04 EasyEDA v5.4.11, Mon, 30 Apr 2018 15:56:54 GMT*
G04 06b4e347cf69432585f47c541de25614*
G04 Gerber Generator version 0.2*
G04 Scale: 100 percent, Rotated: No, Reflected: No *
G04 Dimensions in inches *
G04 leading zeros omitted , absolute positions ,2 integer and 4 decimal *
%FSLAX24Y24*%
%MOIN*%
G90*
G70D02*

%ADD10C,0.010000*%
%ADD25C,0.009000*%
%ADD26C,0.007000*%
%ADD27C,0.028000*%
%ADD28C,0.020000*%
%ADD29C,0.012000*%
%ADD30C,0.008000*%

%LPD*%
G54D10*
G01X29200Y9000D02*
G01X36200Y9000D01*
G01X36200Y9000D02*
G01X36200Y26000D01*
G01X36200Y26000D02*
G01X29200Y26000D01*
G01X29200Y26000D02*
G01X29200Y9000D01*
G01X31200Y10500D02*
G01X31200Y7500D01*
G01X34200Y7500D01*
G01X34200Y10500D01*
G01X31200Y10500D01*
G01X38600Y5600D02*
G01X38600Y7600D01*
G01X38600Y7600D02*
G01X38900Y7600D01*
G01X38900Y7600D02*
G01X39200Y7600D01*
G01X39200Y7600D02*
G01X39200Y5600D01*
G01X39200Y5600D02*
G01X38900Y5600D01*
G01X38900Y5600D02*
G01X38600Y5600D01*
G01X38900Y7600D02*
G01X38900Y7700D01*
G01X38900Y5600D02*
G01X38900Y5500D01*
G01X38900Y16500D02*
G01X38900Y18500D01*
G01X38900Y18500D02*
G01X39200Y18500D01*
G01X39200Y18500D02*
G01X39500Y18500D01*
G01X39500Y18500D02*
G01X39500Y16500D01*
G01X39500Y16500D02*
G01X39200Y16500D01*
G01X39200Y16500D02*
G01X38900Y16500D01*
G01X39200Y18500D02*
G01X39200Y18600D01*
G01X39200Y16500D02*
G01X39200Y16400D01*
G01X37100Y28200D02*
G01X39100Y28200D01*
G01X39100Y28200D02*
G01X39100Y27900D01*
G01X39100Y27900D02*
G01X39100Y27600D01*
G01X39100Y27600D02*
G01X37100Y27600D01*
G01X37100Y27600D02*
G01X37100Y27900D01*
G01X37100Y27900D02*
G01X37100Y28200D01*
G01X39100Y27900D02*
G01X39200Y27900D01*
G01X37100Y27900D02*
G01X37000Y27900D01*
G01X37100Y29500D02*
G01X39100Y29500D01*
G01X39100Y29500D02*
G01X39100Y29200D01*
G01X39100Y29200D02*
G01X39100Y28900D01*
G01X39100Y28900D02*
G01X37100Y28900D01*
G01X37100Y28900D02*
G01X37100Y29200D01*
G01X37100Y29200D02*
G01X37100Y29500D01*
G01X39100Y29200D02*
G01X39200Y29200D01*
G01X37100Y29200D02*
G01X37000Y29200D01*
G01X43200Y5000D02*
G01X41200Y5000D01*
G01X41200Y5000D02*
G01X41200Y5300D01*
G01X41200Y5300D02*
G01X41200Y5600D01*
G01X41200Y5600D02*
G01X43200Y5600D01*
G01X43200Y5600D02*
G01X43200Y5300D01*
G01X43200Y5300D02*
G01X43200Y5000D01*
G01X41200Y5300D02*
G01X41100Y5300D01*
G01X43200Y5300D02*
G01X43300Y5300D01*
G01X43600Y13700D02*
G01X41600Y13700D01*
G01X41600Y13700D02*
G01X41600Y14000D01*
G01X41600Y14000D02*
G01X41600Y14300D01*
G01X41600Y14300D02*
G01X43600Y14300D01*
G01X43600Y14300D02*
G01X43600Y14000D01*
G01X43600Y14000D02*
G01X43600Y13700D01*
G01X41600Y14000D02*
G01X41500Y14000D01*
G01X43600Y14000D02*
G01X43700Y14000D01*
G01X43500Y24400D02*
G01X41500Y24400D01*
G01X41500Y24400D02*
G01X41500Y24700D01*
G01X41500Y24700D02*
G01X41500Y25000D01*
G01X41500Y25000D02*
G01X43500Y25000D01*
G01X43500Y25000D02*
G01X43500Y24700D01*
G01X43500Y24700D02*
G01X43500Y24400D01*
G01X41500Y24700D02*
G01X41400Y24700D01*
G01X43500Y24700D02*
G01X43600Y24700D01*
G01X44000Y31900D02*
G01X42000Y31900D01*
G01X42000Y31900D02*
G01X42000Y32200D01*
G01X42000Y32200D02*
G01X42000Y32500D01*
G01X42000Y32500D02*
G01X44000Y32500D01*
G01X44000Y32500D02*
G01X44000Y32200D01*
G01X44000Y32200D02*
G01X44000Y31900D01*
G01X42000Y32200D02*
G01X41900Y32200D01*
G01X44000Y32200D02*
G01X44100Y32200D01*
G01X42800Y10600D02*
G01X42800Y8200D01*
G01X44300Y20200D02*
G01X44300Y17800D01*
G01X43800Y29100D02*
G01X43800Y26700D01*
G01X44300Y37600D02*
G01X44300Y35200D01*
G01X46000Y5600D02*
G01X48000Y5600D01*
G01X48000Y5600D02*
G01X48000Y5300D01*
G01X48000Y5300D02*
G01X48000Y5000D01*
G01X48000Y5000D02*
G01X46000Y5000D01*
G01X46000Y5000D02*
G01X46000Y5300D01*
G01X46000Y5300D02*
G01X46000Y5600D01*
G01X48000Y5300D02*
G01X48100Y5300D01*
G01X46000Y5300D02*
G01X45900Y5300D01*
G01X47400Y14600D02*
G01X49400Y14600D01*
G01X49400Y14600D02*
G01X49400Y14300D01*
G01X49400Y14300D02*
G01X49400Y14000D01*
G01X49400Y14000D02*
G01X47400Y14000D01*
G01X47400Y14000D02*
G01X47400Y14300D01*
G01X47400Y14300D02*
G01X47400Y14600D01*
G01X49400Y14300D02*
G01X49500Y14300D01*
G01X47400Y14300D02*
G01X47300Y14300D01*
G01X46500Y25000D02*
G01X48500Y25000D01*
G01X48500Y25000D02*
G01X48500Y24700D01*
G01X48500Y24700D02*
G01X48500Y24400D01*
G01X48500Y24400D02*
G01X46500Y24400D01*
G01X46500Y24400D02*
G01X46500Y24700D01*
G01X46500Y24700D02*
G01X46500Y25000D01*
G01X48500Y24700D02*
G01X48600Y24700D01*
G01X46500Y24700D02*
G01X46400Y24700D01*
G01X46300Y32500D02*
G01X48300Y32500D01*
G01X48300Y32500D02*
G01X48300Y32200D01*
G01X48300Y32200D02*
G01X48300Y31900D01*
G01X48300Y31900D02*
G01X46300Y31900D01*
G01X46300Y31900D02*
G01X46300Y32200D01*
G01X46300Y32200D02*
G01X46300Y32500D01*
G01X48300Y32200D02*
G01X48400Y32200D01*
G01X46300Y32200D02*
G01X46200Y32200D01*
G01X47700Y8750D02*
G01X47700Y10250D01*
G01X47500Y17650D02*
G01X47500Y19150D01*
G01X47400Y26550D02*
G01X47400Y28050D01*
G01X47600Y35250D02*
G01X47600Y36750D01*
G54D25*
G01X49950Y9700D02*
G01X49950Y7700D01*
G01X49050Y7700D01*
G01X49050Y9700D01*
G01X49950Y9700D01*
G01X49950Y7950D02*
G01X49050Y7950D01*
G01X49650Y18700D02*
G01X49650Y16700D01*
G01X48750Y16700D01*
G01X48750Y18700D01*
G01X49650Y18700D01*
G01X49650Y16950D02*
G01X48750Y16950D01*
G01X49850Y28600D02*
G01X49850Y26600D01*
G01X48950Y26600D01*
G01X48950Y28600D01*
G01X49850Y28600D01*
G01X49850Y26850D02*
G01X48950Y26850D01*
G01X49750Y36400D02*
G01X49750Y34400D01*
G01X48850Y34400D01*
G01X48850Y36400D01*
G01X49750Y36400D01*
G01X49750Y34650D02*
G01X48850Y34650D01*
G54D10*
G01X65075Y11484D02*
G01X65075Y7546D01*
G01X65075Y5578D01*
G01X63500Y5578D01*
G01X62004Y5578D01*
G01X62004Y7546D01*
G01X62004Y11484D01*
G01X63500Y11484D01*
G01X65075Y11484D01*
G01X62004Y6957D02*
G01X62515Y6957D01*
G01X62515Y6169D01*
G01X62004Y6169D01*
G01X62004Y8138D02*
G01X62515Y8138D01*
G01X62515Y8925D01*
G01X62004Y8925D01*
G01X62004Y10105D02*
G01X62515Y10105D01*
G01X62515Y10894D01*
G01X62004Y10894D01*
G01X64975Y20584D02*
G01X64975Y16646D01*
G01X64975Y14678D01*
G01X63400Y14678D01*
G01X61904Y14678D01*
G01X61904Y16646D01*
G01X61904Y20584D01*
G01X63400Y20584D01*
G01X64975Y20584D01*
G01X61904Y16057D02*
G01X62415Y16057D01*
G01X62415Y15269D01*
G01X61904Y15269D01*
G01X61904Y17238D02*
G01X62415Y17238D01*
G01X62415Y18025D01*
G01X61904Y18025D01*
G01X61904Y19205D02*
G01X62415Y19205D01*
G01X62415Y19994D01*
G01X61904Y19994D01*
G01X64975Y29484D02*
G01X64975Y25546D01*
G01X64975Y23578D01*
G01X63400Y23578D01*
G01X61904Y23578D01*
G01X61904Y25546D01*
G01X61904Y29484D01*
G01X63400Y29484D01*
G01X64975Y29484D01*
G01X61904Y24957D02*
G01X62415Y24957D01*
G01X62415Y24169D01*
G01X61904Y24169D01*
G01X61904Y26138D02*
G01X62415Y26138D01*
G01X62415Y26925D01*
G01X61904Y26925D01*
G01X61904Y28105D02*
G01X62415Y28105D01*
G01X62415Y28894D01*
G01X61904Y28894D01*
G01X64975Y38384D02*
G01X64975Y34446D01*
G01X64975Y32478D01*
G01X63400Y32478D01*
G01X61904Y32478D01*
G01X61904Y34446D01*
G01X61904Y38384D01*
G01X63400Y38384D01*
G01X64975Y38384D01*
G01X61904Y33857D02*
G01X62415Y33857D01*
G01X62415Y33069D01*
G01X61904Y33069D01*
G01X61904Y35038D02*
G01X62415Y35038D01*
G01X62415Y35825D01*
G01X61904Y35825D01*
G01X61904Y37005D02*
G01X62415Y37005D01*
G01X62415Y37794D01*
G01X61904Y37794D01*
G01X51200Y11900D02*
G01X51200Y5207D01*
G01X60060Y5209D01*
G01X60057Y11900D01*
G01X51200Y11900D01*
G01X51100Y21000D02*
G01X51100Y14307D01*
G01X59960Y14309D01*
G01X59957Y21000D01*
G01X51100Y21000D01*
G01X51100Y30000D02*
G01X51100Y23307D01*
G01X59960Y23309D01*
G01X59957Y30000D01*
G01X51100Y30000D01*
G01X51100Y38800D02*
G01X51100Y32107D01*
G01X59960Y32109D01*
G01X59957Y38800D01*
G01X51100Y38800D01*
G01X22600Y32250D02*
G01X22600Y28150D01*
G01X28850Y28150D02*
G01X28850Y32250D01*
G01X22600Y28150D02*
G01X27500Y28150D01*
G01X27500Y28150D02*
G01X27500Y28500D01*
G01X27500Y28500D02*
G01X28100Y28500D01*
G01X28100Y28500D02*
G01X28100Y28150D01*
G01X28100Y28150D02*
G01X28850Y28150D01*
G01X22600Y32250D02*
G01X27500Y32250D01*
G01X27500Y32250D02*
G01X27500Y31900D01*
G01X27500Y31900D02*
G01X28100Y31900D01*
G01X28100Y31900D02*
G01X28100Y32250D01*
G01X28100Y32250D02*
G01X28850Y32250D01*
G01X22850Y32000D02*
G01X22850Y28400D01*
G01X26100Y28400D02*
G01X22850Y28400D01*
G01X26100Y28400D02*
G01X26100Y32000D01*
G01X22850Y32000D02*
G01X26100Y32000D01*
G54D25*
G01X25639Y39500D02*
G01X25639Y37450D01*
G01X24560Y37450D01*
G01X24560Y39500D01*
G01X25639Y39500D01*
G01X25639Y37700D02*
G01X24560Y37700D01*
G54D10*
G01X18013Y33990D02*
G01X19586Y33990D01*
G01X19586Y33990D02*
G01X19586Y32809D01*
G01X19586Y32809D02*
G01X18013Y32809D01*
G01X18013Y32809D02*
G01X18013Y33990D01*
G01X21110Y36602D02*
G01X20580Y36602D01*
G01X20839Y36852D02*
G01X20839Y36361D01*
G01X29910Y35002D02*
G01X29380Y35002D01*
G01X29639Y35252D02*
G01X29639Y34761D01*
G54D26*
G01X17400Y36700D02*
G01X16400Y36700D01*
G01X16400Y39900D01*
G01X18400Y39900D01*
G01X18400Y36700D01*
G01X17400Y36700D01*
G01X35400Y40000D02*
G01X36400Y40000D01*
G01X36400Y36800D01*
G01X34400Y36800D01*
G01X34400Y40000D01*
G01X35400Y40000D01*
G54D10*
G01X32352Y43025D02*
G01X32352Y41450D01*
G01X32352Y39954D01*
G01X28415Y39954D01*
G01X28415Y41450D01*
G01X28415Y43025D01*
G01X32352Y43025D01*
G01X29006Y39954D02*
G01X29006Y40465D01*
G01X29793Y40465D01*
G01X29793Y39954D01*
G01X30975Y39954D02*
G01X30975Y40465D01*
G01X31761Y40465D01*
G01X31761Y39954D01*
G01X4125Y36046D02*
G01X2550Y36046D01*
G01X1053Y36046D01*
G01X1053Y39984D01*
G01X2550Y39984D01*
G01X4125Y39984D01*
G01X4125Y36046D01*
G01X1053Y39394D02*
G01X1565Y39394D01*
G01X1565Y38605D01*
G01X1053Y38605D01*
G01X1053Y37425D02*
G01X1565Y37425D01*
G01X1565Y36638D01*
G01X1053Y36638D01*
G01X4125Y31246D02*
G01X2550Y31246D01*
G01X1053Y31246D01*
G01X1053Y35184D01*
G01X2550Y35184D01*
G01X4125Y35184D01*
G01X4125Y31246D01*
G01X1053Y34594D02*
G01X1565Y34594D01*
G01X1565Y33805D01*
G01X1053Y33805D01*
G01X1053Y32625D02*
G01X1565Y32625D01*
G01X1565Y31838D01*
G01X1053Y31838D01*
G01X4125Y26246D02*
G01X2550Y26246D01*
G01X1053Y26246D01*
G01X1053Y30184D01*
G01X2550Y30184D01*
G01X4125Y30184D01*
G01X4125Y26246D01*
G01X1053Y29594D02*
G01X1565Y29594D01*
G01X1565Y28805D01*
G01X1053Y28805D01*
G01X1053Y27625D02*
G01X1565Y27625D01*
G01X1565Y26838D01*
G01X1053Y26838D01*
G01X5900Y38700D02*
G01X5900Y36700D01*
G01X5900Y36700D02*
G01X5600Y36700D01*
G01X5600Y36700D02*
G01X5300Y36700D01*
G01X5300Y36700D02*
G01X5300Y38700D01*
G01X5300Y38700D02*
G01X5600Y38700D01*
G01X5600Y38700D02*
G01X5900Y38700D01*
G01X5600Y36700D02*
G01X5600Y36600D01*
G01X5600Y38700D02*
G01X5600Y38800D01*
G01X5700Y34200D02*
G01X5700Y32200D01*
G01X5700Y32200D02*
G01X5400Y32200D01*
G01X5400Y32200D02*
G01X5100Y32200D01*
G01X5100Y32200D02*
G01X5100Y34200D01*
G01X5100Y34200D02*
G01X5400Y34200D01*
G01X5400Y34200D02*
G01X5700Y34200D01*
G01X5400Y32200D02*
G01X5400Y32100D01*
G01X5400Y34200D02*
G01X5400Y34300D01*
G01X5900Y29700D02*
G01X5900Y27700D01*
G01X5900Y27700D02*
G01X5600Y27700D01*
G01X5600Y27700D02*
G01X5300Y27700D01*
G01X5300Y27700D02*
G01X5300Y29700D01*
G01X5300Y29700D02*
G01X5600Y29700D01*
G01X5600Y29700D02*
G01X5900Y29700D01*
G01X5600Y27700D02*
G01X5600Y27600D01*
G01X5600Y29700D02*
G01X5600Y29800D01*
G01X7500Y38700D02*
G01X7500Y36700D01*
G01X7500Y36700D02*
G01X7200Y36700D01*
G01X7200Y36700D02*
G01X6900Y36700D01*
G01X6900Y36700D02*
G01X6900Y38700D01*
G01X6900Y38700D02*
G01X7200Y38700D01*
G01X7200Y38700D02*
G01X7500Y38700D01*
G01X7200Y36700D02*
G01X7200Y36600D01*
G01X7200Y38700D02*
G01X7200Y38800D01*
G01X7500Y34200D02*
G01X7500Y32200D01*
G01X7500Y32200D02*
G01X7200Y32200D01*
G01X7200Y32200D02*
G01X6900Y32200D01*
G01X6900Y32200D02*
G01X6900Y34200D01*
G01X6900Y34200D02*
G01X7200Y34200D01*
G01X7200Y34200D02*
G01X7500Y34200D01*
G01X7200Y32200D02*
G01X7200Y32100D01*
G01X7200Y34200D02*
G01X7200Y34300D01*
G01X6900Y27700D02*
G01X6900Y29700D01*
G01X6900Y29700D02*
G01X7200Y29700D01*
G01X7200Y29700D02*
G01X7500Y29700D01*
G01X7500Y29700D02*
G01X7500Y27700D01*
G01X7500Y27700D02*
G01X7200Y27700D01*
G01X7200Y27700D02*
G01X6900Y27700D01*
G01X7200Y29700D02*
G01X7200Y29800D01*
G01X7200Y27700D02*
G01X7200Y27600D01*
G01X4125Y19546D02*
G01X2550Y19546D01*
G01X1053Y19546D01*
G01X1053Y23484D01*
G01X2550Y23484D01*
G01X4125Y23484D01*
G01X4125Y19546D01*
G01X1053Y22894D02*
G01X1565Y22894D01*
G01X1565Y22105D01*
G01X1053Y22105D01*
G01X1053Y20925D02*
G01X1565Y20925D01*
G01X1565Y20138D01*
G01X1053Y20138D01*
G01X4125Y14546D02*
G01X2550Y14546D01*
G01X1053Y14546D01*
G01X1053Y18484D01*
G01X2550Y18484D01*
G01X4125Y18484D01*
G01X4125Y14546D01*
G01X1053Y17894D02*
G01X1565Y17894D01*
G01X1565Y17105D01*
G01X1053Y17105D01*
G01X1053Y15925D02*
G01X1565Y15925D01*
G01X1565Y15138D01*
G01X1053Y15138D01*
G01X4225Y8946D02*
G01X2650Y8946D01*
G01X1153Y8946D01*
G01X1153Y12884D01*
G01X2650Y12884D01*
G01X4225Y12884D01*
G01X4225Y8946D01*
G01X1153Y12294D02*
G01X1665Y12294D01*
G01X1665Y11505D01*
G01X1153Y11505D01*
G01X1153Y10325D02*
G01X1665Y10325D01*
G01X1665Y9538D01*
G01X1153Y9538D01*
G01X4225Y3946D02*
G01X2650Y3946D01*
G01X1153Y3946D01*
G01X1153Y7884D01*
G01X2650Y7884D01*
G01X4225Y7884D01*
G01X4225Y3946D01*
G01X1153Y7294D02*
G01X1665Y7294D01*
G01X1665Y6505D01*
G01X1153Y6505D01*
G01X1153Y5325D02*
G01X1665Y5325D01*
G01X1665Y4538D01*
G01X1153Y4538D01*
G01X6200Y22100D02*
G01X6200Y20100D01*
G01X6200Y20100D02*
G01X5900Y20100D01*
G01X5900Y20100D02*
G01X5600Y20100D01*
G01X5600Y20100D02*
G01X5600Y22100D01*
G01X5600Y22100D02*
G01X5900Y22100D01*
G01X5900Y22100D02*
G01X6200Y22100D01*
G01X5900Y20100D02*
G01X5900Y20000D01*
G01X5900Y22100D02*
G01X5900Y22200D01*
G01X6300Y17000D02*
G01X6300Y15000D01*
G01X6300Y15000D02*
G01X6000Y15000D01*
G01X6000Y15000D02*
G01X5700Y15000D01*
G01X5700Y15000D02*
G01X5700Y17000D01*
G01X5700Y17000D02*
G01X6000Y17000D01*
G01X6000Y17000D02*
G01X6300Y17000D01*
G01X6000Y15000D02*
G01X6000Y14900D01*
G01X6000Y17000D02*
G01X6000Y17100D01*
G01X6100Y12000D02*
G01X6100Y10000D01*
G01X6100Y10000D02*
G01X5800Y10000D01*
G01X5800Y10000D02*
G01X5500Y10000D01*
G01X5500Y10000D02*
G01X5500Y12000D01*
G01X5500Y12000D02*
G01X5800Y12000D01*
G01X5800Y12000D02*
G01X6100Y12000D01*
G01X5800Y10000D02*
G01X5800Y9900D01*
G01X5800Y12000D02*
G01X5800Y12100D01*
G01X6200Y6500D02*
G01X6200Y4500D01*
G01X6200Y4500D02*
G01X5900Y4500D01*
G01X5900Y4500D02*
G01X5600Y4500D01*
G01X5600Y4500D02*
G01X5600Y6500D01*
G01X5600Y6500D02*
G01X5900Y6500D01*
G01X5900Y6500D02*
G01X6200Y6500D01*
G01X5900Y4500D02*
G01X5900Y4400D01*
G01X5900Y6500D02*
G01X5900Y6600D01*
G01X7700Y22100D02*
G01X7700Y20100D01*
G01X7700Y20100D02*
G01X7400Y20100D01*
G01X7400Y20100D02*
G01X7100Y20100D01*
G01X7100Y20100D02*
G01X7100Y22100D01*
G01X7100Y22100D02*
G01X7400Y22100D01*
G01X7400Y22100D02*
G01X7700Y22100D01*
G01X7400Y20100D02*
G01X7400Y20000D01*
G01X7400Y22100D02*
G01X7400Y22200D01*
G01X7000Y15000D02*
G01X7000Y17000D01*
G01X7000Y17000D02*
G01X7300Y17000D01*
G01X7300Y17000D02*
G01X7600Y17000D01*
G01X7600Y17000D02*
G01X7600Y15000D01*
G01X7600Y15000D02*
G01X7300Y15000D01*
G01X7300Y15000D02*
G01X7000Y15000D01*
G01X7300Y17000D02*
G01X7300Y17100D01*
G01X7300Y15000D02*
G01X7300Y14900D01*
G01X7000Y10000D02*
G01X7000Y12000D01*
G01X7000Y12000D02*
G01X7300Y12000D01*
G01X7300Y12000D02*
G01X7600Y12000D01*
G01X7600Y12000D02*
G01X7600Y10000D01*
G01X7600Y10000D02*
G01X7300Y10000D01*
G01X7300Y10000D02*
G01X7000Y10000D01*
G01X7300Y12000D02*
G01X7300Y12100D01*
G01X7300Y10000D02*
G01X7300Y9900D01*
G01X7000Y3200D02*
G01X7000Y5200D01*
G01X7000Y5200D02*
G01X7300Y5200D01*
G01X7300Y5200D02*
G01X7600Y5200D01*
G01X7600Y5200D02*
G01X7600Y3200D01*
G01X7600Y3200D02*
G01X7300Y3200D01*
G01X7300Y3200D02*
G01X7000Y3200D01*
G01X7300Y5200D02*
G01X7300Y5300D01*
G01X7300Y3200D02*
G01X7300Y3100D01*
G01X14700Y9900D02*
G01X14700Y17900D01*
G01X10700Y17900D02*
G01X10700Y9900D01*
G01X14700Y9900D02*
G01X13700Y9900D01*
G01X14700Y17900D02*
G01X13700Y17900D01*
G01X10700Y17900D02*
G01X11700Y17900D01*
G01X13700Y17900D02*
G01X13700Y9900D01*
G01X13700Y17900D02*
G01X13100Y17900D01*
G01X13700Y9900D02*
G01X11700Y9900D01*
G01X11700Y17900D02*
G01X11700Y9900D01*
G01X11700Y17900D02*
G01X12300Y17900D01*
G01X11700Y9900D02*
G01X10700Y9900D01*
G01X22900Y21600D02*
G01X20900Y21600D01*
G01X20900Y21600D02*
G01X20900Y21900D01*
G01X20900Y21900D02*
G01X20900Y22200D01*
G01X20900Y22200D02*
G01X22900Y22200D01*
G01X22900Y22200D02*
G01X22900Y21900D01*
G01X22900Y21900D02*
G01X22900Y21600D01*
G01X20900Y21900D02*
G01X20800Y21900D01*
G01X22900Y21900D02*
G01X23000Y21900D01*
G01X22900Y17100D02*
G01X20900Y17100D01*
G01X20900Y17100D02*
G01X20900Y17400D01*
G01X20900Y17400D02*
G01X20900Y17700D01*
G01X20900Y17700D02*
G01X22900Y17700D01*
G01X22900Y17700D02*
G01X22900Y17400D01*
G01X22900Y17400D02*
G01X22900Y17100D01*
G01X20900Y17400D02*
G01X20800Y17400D01*
G01X22900Y17400D02*
G01X23000Y17400D01*
G01X22900Y12500D02*
G01X20900Y12500D01*
G01X20900Y12500D02*
G01X20900Y12800D01*
G01X20900Y12800D02*
G01X20900Y13100D01*
G01X20900Y13100D02*
G01X22900Y13100D01*
G01X22900Y13100D02*
G01X22900Y12800D01*
G01X22900Y12800D02*
G01X22900Y12500D01*
G01X20900Y12800D02*
G01X20800Y12800D01*
G01X22900Y12800D02*
G01X23000Y12800D01*
G01X22900Y8000D02*
G01X20900Y8000D01*
G01X20900Y8000D02*
G01X20900Y8300D01*
G01X20900Y8300D02*
G01X20900Y8600D01*
G01X20900Y8600D02*
G01X22900Y8600D01*
G01X22900Y8600D02*
G01X22900Y8300D01*
G01X22900Y8300D02*
G01X22900Y8000D01*
G01X20900Y8300D02*
G01X20800Y8300D01*
G01X22900Y8300D02*
G01X23000Y8300D01*
G01X17100Y21150D02*
G01X17100Y19650D01*
G01X17100Y16750D02*
G01X17100Y15250D01*
G01X17000Y12250D02*
G01X17000Y10750D01*
G01X17000Y7350D02*
G01X17000Y5850D01*
G01X22900Y19500D02*
G01X20900Y19500D01*
G01X20900Y19500D02*
G01X20900Y19800D01*
G01X20900Y19800D02*
G01X20900Y20100D01*
G01X20900Y20100D02*
G01X22900Y20100D01*
G01X22900Y20100D02*
G01X22900Y19800D01*
G01X22900Y19800D02*
G01X22900Y19500D01*
G01X20900Y19800D02*
G01X20800Y19800D01*
G01X22900Y19800D02*
G01X23000Y19800D01*
G01X22900Y14900D02*
G01X20900Y14900D01*
G01X20900Y14900D02*
G01X20900Y15200D01*
G01X20900Y15200D02*
G01X20900Y15500D01*
G01X20900Y15500D02*
G01X22900Y15500D01*
G01X22900Y15500D02*
G01X22900Y15200D01*
G01X22900Y15200D02*
G01X22900Y14900D01*
G01X20900Y15200D02*
G01X20800Y15200D01*
G01X22900Y15200D02*
G01X23000Y15200D01*
G01X22900Y10400D02*
G01X20900Y10400D01*
G01X20900Y10400D02*
G01X20900Y10700D01*
G01X20900Y10700D02*
G01X20900Y11000D01*
G01X20900Y11000D02*
G01X22900Y11000D01*
G01X22900Y11000D02*
G01X22900Y10700D01*
G01X22900Y10700D02*
G01X22900Y10400D01*
G01X20900Y10700D02*
G01X20800Y10700D01*
G01X22900Y10700D02*
G01X23000Y10700D01*
G01X22900Y5900D02*
G01X20900Y5900D01*
G01X20900Y5900D02*
G01X20900Y6200D01*
G01X20900Y6200D02*
G01X20900Y6500D01*
G01X20900Y6500D02*
G01X22900Y6500D01*
G01X22900Y6500D02*
G01X22900Y6200D01*
G01X22900Y6200D02*
G01X22900Y5900D01*
G01X20900Y6200D02*
G01X20800Y6200D01*
G01X22900Y6200D02*
G01X23000Y6200D01*
G54D25*
G01X11800Y36100D02*
G01X11800Y29100D01*
G01X13800Y29100D01*
G01X13800Y36100D01*
G01X11800Y36100D01*
G54D27*
G01X11800Y2955D02*
G01X11800Y1426D01*
G01X11800Y2955D02*
G01X12455Y2955D01*
G01X12672Y2882D01*
G01X12744Y2809D01*
G01X12818Y2663D01*
G01X12818Y2446D01*
G01X12744Y2300D01*
G01X12672Y2226D01*
G01X12455Y2155D01*
G01X11800Y2155D01*
G01X13297Y2955D02*
G01X13297Y1426D01*
G01X13297Y1426D02*
G01X14171Y1426D01*
G01X15742Y2590D02*
G01X15668Y2736D01*
G01X15523Y2882D01*
G01X15377Y2955D01*
G01X15086Y2955D01*
G01X14942Y2882D01*
G01X14796Y2736D01*
G01X14723Y2590D01*
G01X14651Y2373D01*
G01X14651Y2009D01*
G01X14723Y1790D01*
G01X14796Y1646D01*
G01X14942Y1500D01*
G01X15086Y1426D01*
G01X15377Y1426D01*
G01X15523Y1500D01*
G01X15668Y1646D01*
G01X15742Y1790D01*
G01X16222Y917D02*
G01X17531Y917D01*
G01X18593Y2955D02*
G01X18010Y1426D01*
G01X18593Y2955D02*
G01X19175Y1426D01*
G01X18228Y1936D02*
G01X18956Y1936D01*
G01X19655Y2446D02*
G01X19655Y1426D01*
G01X19655Y2009D02*
G01X19727Y2226D01*
G01X19872Y2373D01*
G01X20018Y2446D01*
G01X20235Y2446D01*
G01X21589Y2955D02*
G01X21589Y1426D01*
G01X21589Y2226D02*
G01X21443Y2373D01*
G01X21297Y2446D01*
G01X21080Y2446D01*
G01X20935Y2373D01*
G01X20789Y2226D01*
G01X20715Y2009D01*
G01X20715Y1863D01*
G01X20789Y1646D01*
G01X20935Y1500D01*
G01X21080Y1426D01*
G01X21297Y1426D01*
G01X21443Y1500D01*
G01X21589Y1646D01*
G01X22068Y2446D02*
G01X22068Y1717D01*
G01X22142Y1500D01*
G01X22286Y1426D01*
G01X22505Y1426D01*
G01X22651Y1500D01*
G01X22868Y1717D01*
G01X22868Y2446D02*
G01X22868Y1426D01*
G01X23348Y2446D02*
G01X23348Y1426D01*
G01X23348Y2155D02*
G01X23567Y2373D01*
G01X23713Y2446D01*
G01X23931Y2446D01*
G01X24076Y2373D01*
G01X24148Y2155D01*
G01X24148Y1426D01*
G01X25502Y2446D02*
G01X25502Y1426D01*
G01X25502Y2226D02*
G01X25356Y2373D01*
G01X25210Y2446D01*
G01X24993Y2446D01*
G01X24847Y2373D01*
G01X24702Y2226D01*
G01X24628Y2009D01*
G01X24628Y1863D01*
G01X24702Y1646D01*
G01X24847Y1500D01*
G01X24993Y1426D01*
G01X25210Y1426D01*
G01X25356Y1500D01*
G01X25502Y1646D01*
G01X25981Y2446D02*
G01X25981Y1426D01*
G01X25981Y2155D02*
G01X26200Y2373D01*
G01X26344Y2446D01*
G01X26564Y2446D01*
G01X26709Y2373D01*
G01X26781Y2155D01*
G01X26781Y1426D01*
G01X27625Y2446D02*
G01X27480Y2373D01*
G01X27335Y2226D01*
G01X27261Y2009D01*
G01X27261Y1863D01*
G01X27335Y1646D01*
G01X27480Y1500D01*
G01X27625Y1426D01*
G01X27843Y1426D01*
G01X27989Y1500D01*
G01X28135Y1646D01*
G01X28206Y1863D01*
G01X28206Y2009D01*
G01X28135Y2226D01*
G01X27989Y2373D01*
G01X27843Y2446D01*
G01X27625Y2446D01*
G01X28686Y917D02*
G01X29996Y917D01*
G01X30476Y2955D02*
G01X31057Y1426D01*
G01X31639Y2955D02*
G01X31057Y1426D01*
G01X32119Y2663D02*
G01X32264Y2736D01*
G01X32484Y2955D01*
G01X32484Y1426D01*
G01X33035Y1790D02*
G01X32964Y1717D01*
G01X33035Y1646D01*
G01X33109Y1717D01*
G01X33035Y1790D01*
G01X34025Y2955D02*
G01X33806Y2882D01*
G01X33661Y2663D01*
G01X33589Y2300D01*
G01X33589Y2082D01*
G01X33661Y1717D01*
G01X33806Y1500D01*
G01X34025Y1426D01*
G01X34171Y1426D01*
G01X34389Y1500D01*
G01X34535Y1717D01*
G01X34606Y2082D01*
G01X34606Y2300D01*
G01X34535Y2663D01*
G01X34389Y2882D01*
G01X34171Y2955D01*
G01X34025Y2955D01*
G54D28*
G01X50022Y2190D02*
G01X49955Y2328D01*
G01X49818Y2463D01*
G01X49681Y2532D01*
G01X49409Y2532D01*
G01X49272Y2463D01*
G01X49135Y2328D01*
G01X49068Y2190D01*
G01X49000Y1986D01*
G01X49000Y1646D01*
G01X49068Y1440D01*
G01X49135Y1305D01*
G01X49272Y1169D01*
G01X49409Y1100D01*
G01X49681Y1100D01*
G01X49818Y1169D01*
G01X49955Y1305D01*
G01X50022Y1440D01*
G01X50022Y1646D01*
G01X49681Y1646D02*
G01X50022Y1646D01*
G01X50540Y1440D02*
G01X50472Y1373D01*
G01X50540Y1305D01*
G01X50609Y1373D01*
G01X50540Y1440D01*
G01X52081Y2190D02*
G01X52014Y2328D01*
G01X51877Y2463D01*
G01X51740Y2532D01*
G01X51468Y2532D01*
G01X51331Y2463D01*
G01X51194Y2328D01*
G01X51127Y2190D01*
G01X51059Y1986D01*
G01X51059Y1646D01*
G01X51127Y1440D01*
G01X51194Y1305D01*
G01X51331Y1169D01*
G01X51468Y1100D01*
G01X51740Y1100D01*
G01X51877Y1169D01*
G01X52014Y1305D01*
G01X52081Y1440D01*
G01X52081Y1646D01*
G01X51740Y1646D02*
G01X52081Y1646D01*
G01X52872Y2055D02*
G01X52735Y1986D01*
G01X52600Y1850D01*
G01X52531Y1646D01*
G01X52531Y1509D01*
G01X52600Y1305D01*
G01X52735Y1169D01*
G01X52872Y1100D01*
G01X53077Y1100D01*
G01X53214Y1169D01*
G01X53350Y1305D01*
G01X53418Y1509D01*
G01X53418Y1646D01*
G01X53350Y1850D01*
G01X53214Y1986D01*
G01X53077Y2055D01*
G01X52872Y2055D01*
G01X53868Y2055D02*
G01X53868Y1100D01*
G01X53868Y1782D02*
G01X54072Y1986D01*
G01X54209Y2055D01*
G01X54414Y2055D01*
G01X54550Y1986D01*
G01X54618Y1782D01*
G01X54618Y1100D01*
G01X54618Y1782D02*
G01X54822Y1986D01*
G01X54959Y2055D01*
G01X55164Y2055D01*
G01X55300Y1986D01*
G01X55368Y1782D01*
G01X55368Y1100D01*
G01X55818Y1646D02*
G01X56635Y1646D01*
G01X56635Y1782D01*
G01X56568Y1919D01*
G01X56500Y1986D01*
G01X56364Y2055D01*
G01X56159Y2055D01*
G01X56022Y1986D01*
G01X55885Y1850D01*
G01X55818Y1646D01*
G01X55818Y1509D01*
G01X55885Y1305D01*
G01X56022Y1169D01*
G01X56159Y1100D01*
G01X56364Y1100D01*
G01X56500Y1169D01*
G01X56635Y1305D01*
G01X57085Y2055D02*
G01X57085Y1100D01*
G01X57085Y1782D02*
G01X57290Y1986D01*
G01X57427Y2055D01*
G01X57631Y2055D01*
G01X57768Y1986D01*
G01X57835Y1782D01*
G01X57835Y1100D01*
G01X59105Y2532D02*
G01X59105Y1100D01*
G01X59105Y1850D02*
G01X58968Y1986D01*
G01X58831Y2055D01*
G01X58627Y2055D01*
G01X58490Y1986D01*
G01X58355Y1850D01*
G01X58285Y1646D01*
G01X58285Y1509D01*
G01X58355Y1305D01*
G01X58490Y1169D01*
G01X58627Y1100D01*
G01X58831Y1100D01*
G01X58968Y1169D01*
G01X59105Y1305D01*
G01X59555Y2532D02*
G01X59622Y2463D01*
G01X59690Y2532D01*
G01X59622Y2600D01*
G01X59555Y2532D01*
G01X59622Y2055D02*
G01X59622Y1100D01*
G01X60481Y2055D02*
G01X60344Y1986D01*
G01X60209Y1850D01*
G01X60140Y1646D01*
G01X60140Y1509D01*
G01X60209Y1305D01*
G01X60344Y1169D01*
G01X60481Y1100D01*
G01X60685Y1100D01*
G01X60822Y1169D01*
G01X60959Y1305D01*
G01X61027Y1509D01*
G01X61027Y1646D01*
G01X60959Y1850D01*
G01X60822Y1986D01*
G01X60685Y2055D01*
G01X60481Y2055D01*
G54D29*
G01X43000Y41382D02*
G01X43000Y40809D01*
G01X43000Y40809D02*
G01X43327Y40809D01*
G01X43535Y41246D02*
G01X43535Y41273D01*
G01X43561Y41328D01*
G01X43589Y41355D01*
G01X43643Y41382D01*
G01X43752Y41382D01*
G01X43806Y41355D01*
G01X43835Y41328D01*
G01X43861Y41273D01*
G01X43861Y41219D01*
G01X43835Y41163D01*
G01X43780Y41082D01*
G01X43506Y40809D01*
G01X43889Y40809D01*
G01X32500Y27799D02*
G01X32500Y27390D01*
G01X32527Y27308D01*
G01X32581Y27254D01*
G01X32664Y27227D01*
G01X32718Y27227D01*
G01X32800Y27254D01*
G01X32855Y27308D01*
G01X32881Y27390D01*
G01X32881Y27799D01*
G01X33061Y27690D02*
G01X33115Y27717D01*
G01X33197Y27799D01*
G01X33197Y27227D01*
G54D30*
G01X27063Y24827D02*
G01X27063Y24444D01*
G01X27063Y24827D02*
G01X27189Y24827D01*
G01X27244Y24809D01*
G01X27281Y24773D01*
G01X27298Y24736D01*
G01X27318Y24682D01*
G01X27318Y24590D01*
G01X27298Y24536D01*
G01X27281Y24500D01*
G01X27244Y24463D01*
G01X27189Y24444D01*
G01X27063Y24444D01*
G01X27438Y24753D02*
G01X27473Y24773D01*
G01X27527Y24827D01*
G01X27527Y24444D01*
G01X27976Y24900D02*
G01X27647Y24317D01*
G01X28222Y24827D02*
G01X28222Y24444D01*
G01X28096Y24827D02*
G01X28350Y24827D01*
G01X28469Y24827D02*
G01X28725Y24444D01*
G01X28725Y24827D02*
G01X28469Y24444D01*
G01X36772Y23609D02*
G01X36755Y23646D01*
G01X36718Y23682D01*
G01X36681Y23700D01*
G01X36609Y23700D01*
G01X36572Y23682D01*
G01X36535Y23646D01*
G01X36518Y23609D01*
G01X36500Y23555D01*
G01X36500Y23464D01*
G01X36518Y23409D01*
G01X36535Y23373D01*
G01X36572Y23337D01*
G01X36609Y23318D01*
G01X36681Y23318D01*
G01X36718Y23337D01*
G01X36755Y23373D01*
G01X36772Y23409D01*
G01X36772Y23464D01*
G01X36681Y23464D02*
G01X36772Y23464D01*
G01X36893Y23700D02*
G01X36893Y23318D01*
G01X36893Y23700D02*
G01X37147Y23318D01*
G01X37147Y23700D02*
G01X37147Y23318D01*
G01X37267Y23700D02*
G01X37267Y23318D01*
G01X37267Y23700D02*
G01X37394Y23700D01*
G01X37448Y23682D01*
G01X37485Y23646D01*
G01X37504Y23609D01*
G01X37522Y23555D01*
G01X37522Y23464D01*
G01X37504Y23409D01*
G01X37485Y23373D01*
G01X37448Y23337D01*
G01X37394Y23318D01*
G01X37267Y23318D01*
G01X36964Y21563D02*
G01X36964Y21236D01*
G01X36800Y21400D02*
G01X37127Y21400D01*
G01X37464Y21617D02*
G01X37284Y21617D01*
G01X37264Y21455D01*
G01X37284Y21473D01*
G01X37338Y21490D01*
G01X37393Y21490D01*
G01X37447Y21473D01*
G01X37484Y21436D01*
G01X37502Y21382D01*
G01X37502Y21344D01*
G01X37484Y21290D01*
G01X37447Y21255D01*
G01X37393Y21236D01*
G01X37338Y21236D01*
G01X37284Y21255D01*
G01X37264Y21273D01*
G01X37247Y21309D01*
G01X37622Y21617D02*
G01X37767Y21236D01*
G01X37913Y21617D02*
G01X37767Y21236D01*
G01X26121Y10717D02*
G01X26121Y10336D01*
G01X26121Y10717D02*
G01X26247Y10717D01*
G01X26302Y10700D01*
G01X26339Y10663D01*
G01X26356Y10626D01*
G01X26376Y10573D01*
G01X26376Y10482D01*
G01X26356Y10426D01*
G01X26339Y10390D01*
G01X26302Y10355D01*
G01X26247Y10336D01*
G01X26121Y10336D01*
G01X26496Y10644D02*
G01X26531Y10663D01*
G01X26585Y10717D01*
G01X26585Y10336D01*
G01X26725Y10626D02*
G01X26725Y10644D01*
G01X26743Y10682D01*
G01X26760Y10700D01*
G01X26797Y10717D01*
G01X26869Y10717D01*
G01X26906Y10700D01*
G01X26925Y10682D01*
G01X26943Y10644D01*
G01X26943Y10609D01*
G01X26925Y10573D01*
G01X26888Y10517D01*
G01X26706Y10336D01*
G01X26960Y10336D01*
G01X27407Y10790D02*
G01X27081Y10209D01*
G01X27527Y10717D02*
G01X27527Y10336D01*
G01X27527Y10717D02*
G01X27673Y10336D01*
G01X27818Y10717D02*
G01X27673Y10336D01*
G01X27818Y10717D02*
G01X27818Y10336D01*
G01X27939Y10717D02*
G01X27939Y10336D01*
G01X28314Y10663D02*
G01X28277Y10700D01*
G01X28222Y10717D01*
G01X28150Y10717D01*
G01X28096Y10700D01*
G01X28059Y10663D01*
G01X28059Y10626D01*
G01X28077Y10590D01*
G01X28096Y10573D01*
G01X28131Y10555D01*
G01X28240Y10517D01*
G01X28277Y10500D01*
G01X28296Y10482D01*
G01X28314Y10444D01*
G01X28314Y10390D01*
G01X28277Y10355D01*
G01X28222Y10336D01*
G01X28150Y10336D01*
G01X28096Y10355D01*
G01X28059Y10390D01*
G01X28543Y10717D02*
G01X28506Y10700D01*
G01X28469Y10663D01*
G01X28452Y10626D01*
G01X28434Y10573D01*
G01X28434Y10482D01*
G01X28452Y10426D01*
G01X28469Y10390D01*
G01X28506Y10355D01*
G01X28543Y10336D01*
G01X28615Y10336D01*
G01X28652Y10355D01*
G01X28688Y10390D01*
G01X28706Y10426D01*
G01X28725Y10482D01*
G01X28725Y10573D01*
G01X28706Y10626D01*
G01X28688Y10663D01*
G01X28652Y10700D01*
G01X28615Y10717D01*
G01X28543Y10717D01*
G01X36800Y24717D02*
G01X36944Y24336D01*
G01X37090Y24717D02*
G01X36944Y24336D01*
G01X37210Y24717D02*
G01X37210Y24336D01*
G01X37331Y24717D02*
G01X37331Y24336D01*
G01X37331Y24717D02*
G01X37585Y24336D01*
G01X37585Y24717D02*
G01X37585Y24336D01*
G01X36800Y10617D02*
G01X36800Y10236D01*
G01X36800Y10617D02*
G01X36927Y10617D01*
G01X36981Y10600D01*
G01X37018Y10563D01*
G01X37035Y10526D01*
G01X37055Y10473D01*
G01X37055Y10382D01*
G01X37035Y10326D01*
G01X37018Y10290D01*
G01X36981Y10255D01*
G01X36927Y10236D01*
G01X36800Y10236D01*
G01X37175Y10544D02*
G01X37210Y10563D01*
G01X37264Y10617D01*
G01X37264Y10236D01*
G01X37422Y10617D02*
G01X37622Y10617D01*
G01X37513Y10473D01*
G01X37567Y10473D01*
G01X37604Y10455D01*
G01X37622Y10436D01*
G01X37639Y10382D01*
G01X37639Y10344D01*
G01X37622Y10290D01*
G01X37585Y10255D01*
G01X37531Y10236D01*
G01X37476Y10236D01*
G01X37422Y10255D01*
G01X37404Y10273D01*
G01X37385Y10309D01*
G01X38086Y10690D02*
G01X37760Y10109D01*
G01X38461Y10563D02*
G01X38425Y10600D01*
G01X38371Y10617D01*
G01X38297Y10617D01*
G01X38243Y10600D01*
G01X38206Y10563D01*
G01X38206Y10526D01*
G01X38225Y10490D01*
G01X38243Y10473D01*
G01X38280Y10455D01*
G01X38389Y10417D01*
G01X38425Y10400D01*
G01X38443Y10382D01*
G01X38461Y10344D01*
G01X38461Y10290D01*
G01X38425Y10255D01*
G01X38371Y10236D01*
G01X38297Y10236D01*
G01X38243Y10255D01*
G01X38206Y10290D01*
G01X38855Y10526D02*
G01X38835Y10563D01*
G01X38800Y10600D01*
G01X38764Y10617D01*
G01X38690Y10617D01*
G01X38655Y10600D01*
G01X38618Y10563D01*
G01X38600Y10526D01*
G01X38581Y10473D01*
G01X38581Y10382D01*
G01X38600Y10326D01*
G01X38618Y10290D01*
G01X38655Y10255D01*
G01X38690Y10236D01*
G01X38764Y10236D01*
G01X38800Y10255D01*
G01X38835Y10290D01*
G01X38855Y10326D01*
G01X38975Y10617D02*
G01X38975Y10236D01*
G01X39229Y10617D02*
G01X38975Y10363D01*
G01X39064Y10455D02*
G01X39229Y10236D01*
G01X27976Y21627D02*
G01X27957Y21663D01*
G01X27921Y21700D01*
G01X27885Y21717D01*
G01X27811Y21717D01*
G01X27776Y21700D01*
G01X27739Y21663D01*
G01X27721Y21627D01*
G01X27702Y21573D01*
G01X27702Y21482D01*
G01X27721Y21427D01*
G01X27739Y21390D01*
G01X27776Y21355D01*
G01X27811Y21336D01*
G01X27885Y21336D01*
G01X27921Y21355D01*
G01X27957Y21390D01*
G01X27976Y21427D01*
G01X27976Y21482D01*
G01X27885Y21482D02*
G01X27976Y21482D01*
G01X28096Y21717D02*
G01X28096Y21336D01*
G01X28096Y21717D02*
G01X28350Y21336D01*
G01X28350Y21717D02*
G01X28350Y21336D01*
G01X28469Y21717D02*
G01X28469Y21336D01*
G01X28469Y21717D02*
G01X28597Y21717D01*
G01X28652Y21700D01*
G01X28688Y21663D01*
G01X28706Y21627D01*
G01X28725Y21573D01*
G01X28725Y21482D01*
G01X28706Y21427D01*
G01X28688Y21390D01*
G01X28652Y21355D01*
G01X28597Y21336D01*
G01X28469Y21336D01*
G01X26900Y23627D02*
G01X26900Y23244D01*
G01X26900Y23627D02*
G01X27027Y23627D01*
G01X27081Y23609D01*
G01X27118Y23573D01*
G01X27135Y23536D01*
G01X27155Y23482D01*
G01X27155Y23390D01*
G01X27135Y23336D01*
G01X27118Y23300D01*
G01X27081Y23263D01*
G01X27027Y23244D01*
G01X26900Y23244D01*
G01X27384Y23627D02*
G01X27328Y23609D01*
G01X27293Y23553D01*
G01X27275Y23463D01*
G01X27275Y23409D01*
G01X27293Y23317D01*
G01X27328Y23263D01*
G01X27384Y23244D01*
G01X27419Y23244D01*
G01X27475Y23263D01*
G01X27510Y23317D01*
G01X27528Y23409D01*
G01X27528Y23463D01*
G01X27510Y23553D01*
G01X27475Y23609D01*
G01X27419Y23627D01*
G01X27384Y23627D01*
G01X27976Y23700D02*
G01X27648Y23117D01*
G01X28096Y23627D02*
G01X28096Y23244D01*
G01X28096Y23627D02*
G01X28260Y23627D01*
G01X28314Y23609D01*
G01X28332Y23590D01*
G01X28351Y23553D01*
G01X28351Y23517D01*
G01X28332Y23482D01*
G01X28314Y23463D01*
G01X28260Y23444D01*
G01X28096Y23444D01*
G01X28223Y23444D02*
G01X28351Y23244D01*
G01X28471Y23627D02*
G01X28725Y23244D01*
G01X28725Y23627D02*
G01X28471Y23244D01*
G01X27009Y22700D02*
G01X27009Y22317D01*
G01X27009Y22700D02*
G01X27172Y22700D01*
G01X27227Y22682D01*
G01X27244Y22663D01*
G01X27264Y22627D01*
G01X27264Y22590D01*
G01X27244Y22555D01*
G01X27227Y22536D01*
G01X27172Y22517D01*
G01X27009Y22517D01*
G01X27135Y22517D02*
G01X27264Y22317D01*
G01X27384Y22700D02*
G01X27384Y22317D01*
G01X27384Y22700D02*
G01X27619Y22700D01*
G01X27384Y22517D02*
G01X27528Y22517D01*
G01X27384Y22317D02*
G01X27619Y22317D01*
G01X27993Y22646D02*
G01X27957Y22682D01*
G01X27903Y22700D01*
G01X27831Y22700D01*
G01X27776Y22682D01*
G01X27739Y22646D01*
G01X27739Y22609D01*
G01X27757Y22573D01*
G01X27776Y22555D01*
G01X27813Y22536D01*
G01X27922Y22500D01*
G01X27957Y22482D01*
G01X27976Y22463D01*
G01X27993Y22427D01*
G01X27993Y22373D01*
G01X27957Y22336D01*
G01X27903Y22317D01*
G01X27831Y22317D01*
G01X27776Y22336D01*
G01X27739Y22373D01*
G01X28114Y22700D02*
G01X28114Y22317D01*
G01X28114Y22700D02*
G01X28351Y22700D01*
G01X28114Y22517D02*
G01X28260Y22517D01*
G01X28114Y22317D02*
G01X28351Y22317D01*
G01X28597Y22700D02*
G01X28597Y22317D01*
G01X28471Y22700D02*
G01X28725Y22700D01*
G01X28096Y20717D02*
G01X28096Y20336D01*
G01X28096Y20717D02*
G01X28222Y20717D01*
G01X28277Y20700D01*
G01X28314Y20663D01*
G01X28331Y20627D01*
G01X28351Y20573D01*
G01X28351Y20482D01*
G01X28331Y20427D01*
G01X28314Y20390D01*
G01X28277Y20355D01*
G01X28222Y20336D01*
G01X28096Y20336D01*
G01X28489Y20627D02*
G01X28489Y20644D01*
G01X28506Y20682D01*
G01X28525Y20700D01*
G01X28560Y20717D01*
G01X28634Y20717D01*
G01X28671Y20700D01*
G01X28689Y20682D01*
G01X28706Y20644D01*
G01X28706Y20609D01*
G01X28689Y20573D01*
G01X28652Y20517D01*
G01X28471Y20336D01*
G01X28725Y20336D01*
G01X28096Y19717D02*
G01X28096Y19336D01*
G01X28096Y19717D02*
G01X28222Y19717D01*
G01X28277Y19700D01*
G01X28314Y19663D01*
G01X28331Y19627D01*
G01X28351Y19573D01*
G01X28351Y19482D01*
G01X28331Y19427D01*
G01X28314Y19390D01*
G01X28277Y19355D01*
G01X28222Y19336D01*
G01X28096Y19336D01*
G01X28506Y19717D02*
G01X28706Y19717D01*
G01X28597Y19573D01*
G01X28652Y19573D01*
G01X28689Y19555D01*
G01X28706Y19536D01*
G01X28725Y19482D01*
G01X28725Y19444D01*
G01X28706Y19390D01*
G01X28671Y19355D01*
G01X28615Y19336D01*
G01X28560Y19336D01*
G01X28506Y19355D01*
G01X28489Y19373D01*
G01X28471Y19409D01*
G01X28077Y18717D02*
G01X28077Y18336D01*
G01X28077Y18717D02*
G01X28205Y18717D01*
G01X28260Y18700D01*
G01X28296Y18663D01*
G01X28314Y18627D01*
G01X28332Y18573D01*
G01X28332Y18482D01*
G01X28314Y18427D01*
G01X28296Y18390D01*
G01X28260Y18355D01*
G01X28205Y18336D01*
G01X28077Y18336D01*
G01X28634Y18717D02*
G01X28452Y18463D01*
G01X28725Y18463D01*
G01X28634Y18717D02*
G01X28634Y18336D01*
G01X28096Y17817D02*
G01X28096Y17436D01*
G01X28096Y17817D02*
G01X28222Y17817D01*
G01X28277Y17800D01*
G01X28314Y17763D01*
G01X28331Y17727D01*
G01X28351Y17673D01*
G01X28351Y17582D01*
G01X28331Y17527D01*
G01X28314Y17490D01*
G01X28277Y17455D01*
G01X28222Y17436D01*
G01X28096Y17436D01*
G01X28689Y17817D02*
G01X28506Y17817D01*
G01X28489Y17655D01*
G01X28506Y17673D01*
G01X28560Y17690D01*
G01X28615Y17690D01*
G01X28671Y17673D01*
G01X28706Y17636D01*
G01X28725Y17582D01*
G01X28725Y17544D01*
G01X28706Y17490D01*
G01X28671Y17455D01*
G01X28615Y17436D01*
G01X28560Y17436D01*
G01X28506Y17455D01*
G01X28489Y17473D01*
G01X28471Y17509D01*
G01X28114Y16817D02*
G01X28114Y16436D01*
G01X28114Y16817D02*
G01X28240Y16817D01*
G01X28296Y16800D01*
G01X28331Y16763D01*
G01X28350Y16727D01*
G01X28368Y16673D01*
G01X28368Y16582D01*
G01X28350Y16527D01*
G01X28331Y16490D01*
G01X28296Y16455D01*
G01X28240Y16436D01*
G01X28114Y16436D01*
G01X28706Y16763D02*
G01X28689Y16800D01*
G01X28634Y16817D01*
G01X28597Y16817D01*
G01X28543Y16800D01*
G01X28506Y16744D01*
G01X28489Y16655D01*
G01X28489Y16563D01*
G01X28506Y16490D01*
G01X28543Y16455D01*
G01X28597Y16436D01*
G01X28615Y16436D01*
G01X28669Y16455D01*
G01X28706Y16490D01*
G01X28725Y16544D01*
G01X28725Y16563D01*
G01X28706Y16617D01*
G01X28669Y16655D01*
G01X28615Y16673D01*
G01X28597Y16673D01*
G01X28543Y16655D01*
G01X28506Y16617D01*
G01X28489Y16563D01*
G01X28096Y15717D02*
G01X28096Y15336D01*
G01X28096Y15717D02*
G01X28222Y15717D01*
G01X28277Y15700D01*
G01X28314Y15663D01*
G01X28331Y15626D01*
G01X28351Y15573D01*
G01X28351Y15482D01*
G01X28331Y15426D01*
G01X28314Y15390D01*
G01X28277Y15355D01*
G01X28222Y15336D01*
G01X28096Y15336D01*
G01X28725Y15717D02*
G01X28543Y15336D01*
G01X28471Y15717D02*
G01X28725Y15717D01*
G01X28096Y14817D02*
G01X28096Y14436D01*
G01X28096Y14817D02*
G01X28222Y14817D01*
G01X28277Y14800D01*
G01X28314Y14763D01*
G01X28331Y14726D01*
G01X28351Y14673D01*
G01X28351Y14582D01*
G01X28331Y14526D01*
G01X28314Y14490D01*
G01X28277Y14455D01*
G01X28222Y14436D01*
G01X28096Y14436D01*
G01X28560Y14817D02*
G01X28506Y14800D01*
G01X28489Y14763D01*
G01X28489Y14726D01*
G01X28506Y14690D01*
G01X28543Y14673D01*
G01X28615Y14655D01*
G01X28671Y14636D01*
G01X28706Y14600D01*
G01X28725Y14563D01*
G01X28725Y14509D01*
G01X28706Y14473D01*
G01X28689Y14455D01*
G01X28634Y14436D01*
G01X28560Y14436D01*
G01X28506Y14455D01*
G01X28489Y14473D01*
G01X28471Y14509D01*
G01X28471Y14563D01*
G01X28489Y14600D01*
G01X28525Y14636D01*
G01X28580Y14655D01*
G01X28652Y14673D01*
G01X28689Y14690D01*
G01X28706Y14726D01*
G01X28706Y14763D01*
G01X28689Y14800D01*
G01X28634Y14817D01*
G01X28560Y14817D01*
G01X28114Y13817D02*
G01X28114Y13436D01*
G01X28114Y13817D02*
G01X28240Y13817D01*
G01X28296Y13800D01*
G01X28331Y13763D01*
G01X28350Y13726D01*
G01X28368Y13673D01*
G01X28368Y13582D01*
G01X28350Y13526D01*
G01X28331Y13490D01*
G01X28296Y13455D01*
G01X28240Y13436D01*
G01X28114Y13436D01*
G01X28725Y13690D02*
G01X28706Y13636D01*
G01X28669Y13600D01*
G01X28615Y13582D01*
G01X28597Y13582D01*
G01X28543Y13600D01*
G01X28506Y13636D01*
G01X28489Y13690D01*
G01X28489Y13709D01*
G01X28506Y13763D01*
G01X28543Y13800D01*
G01X28597Y13817D01*
G01X28615Y13817D01*
G01X28669Y13800D01*
G01X28706Y13763D01*
G01X28725Y13690D01*
G01X28725Y13600D01*
G01X28706Y13509D01*
G01X28669Y13455D01*
G01X28615Y13436D01*
G01X28578Y13436D01*
G01X28525Y13455D01*
G01X28506Y13490D01*
G01X27885Y12717D02*
G01X27885Y12336D01*
G01X27885Y12717D02*
G01X28011Y12717D01*
G01X28067Y12700D01*
G01X28102Y12663D01*
G01X28121Y12626D01*
G01X28139Y12573D01*
G01X28139Y12482D01*
G01X28121Y12426D01*
G01X28102Y12390D01*
G01X28067Y12355D01*
G01X28011Y12336D01*
G01X27885Y12336D01*
G01X28260Y12644D02*
G01X28296Y12663D01*
G01X28350Y12717D01*
G01X28350Y12336D01*
G01X28580Y12717D02*
G01X28525Y12700D01*
G01X28489Y12644D01*
G01X28469Y12555D01*
G01X28469Y12500D01*
G01X28489Y12409D01*
G01X28525Y12355D01*
G01X28580Y12336D01*
G01X28615Y12336D01*
G01X28669Y12355D01*
G01X28706Y12409D01*
G01X28725Y12500D01*
G01X28725Y12555D01*
G01X28706Y12644D01*
G01X28669Y12700D01*
G01X28615Y12717D01*
G01X28580Y12717D01*
G01X26285Y11817D02*
G01X26285Y11436D01*
G01X26285Y11817D02*
G01X26411Y11817D01*
G01X26467Y11800D01*
G01X26502Y11763D01*
G01X26521Y11726D01*
G01X26539Y11673D01*
G01X26539Y11582D01*
G01X26521Y11526D01*
G01X26502Y11490D01*
G01X26467Y11455D01*
G01X26411Y11436D01*
G01X26285Y11436D01*
G01X26660Y11744D02*
G01X26696Y11763D01*
G01X26750Y11817D01*
G01X26750Y11436D01*
G01X26869Y11744D02*
G01X26906Y11763D01*
G01X26960Y11817D01*
G01X26960Y11436D01*
G01X27409Y11890D02*
G01X27081Y11309D01*
G01X27528Y11817D02*
G01X27528Y11436D01*
G01X27528Y11817D02*
G01X27673Y11436D01*
G01X27819Y11817D02*
G01X27673Y11436D01*
G01X27819Y11817D02*
G01X27819Y11436D01*
G01X28048Y11817D02*
G01X28011Y11800D01*
G01X27976Y11763D01*
G01X27957Y11726D01*
G01X27939Y11673D01*
G01X27939Y11582D01*
G01X27957Y11526D01*
G01X27976Y11490D01*
G01X28011Y11455D01*
G01X28048Y11436D01*
G01X28121Y11436D01*
G01X28157Y11455D01*
G01X28193Y11490D01*
G01X28211Y11526D01*
G01X28230Y11582D01*
G01X28230Y11673D01*
G01X28211Y11726D01*
G01X28193Y11763D01*
G01X28157Y11800D01*
G01X28121Y11817D01*
G01X28048Y11817D01*
G01X28605Y11763D02*
G01X28568Y11800D01*
G01X28514Y11817D01*
G01X28440Y11817D01*
G01X28386Y11800D01*
G01X28350Y11763D01*
G01X28350Y11726D01*
G01X28368Y11690D01*
G01X28386Y11673D01*
G01X28422Y11655D01*
G01X28531Y11617D01*
G01X28568Y11600D01*
G01X28586Y11582D01*
G01X28605Y11544D01*
G01X28605Y11490D01*
G01X28568Y11455D01*
G01X28514Y11436D01*
G01X28440Y11436D01*
G01X28386Y11455D01*
G01X28350Y11490D01*
G01X28725Y11817D02*
G01X28725Y11436D01*
G01X36835Y11617D02*
G01X37035Y11617D01*
G01X36927Y11473D01*
G01X36981Y11473D01*
G01X37018Y11455D01*
G01X37035Y11436D01*
G01X37055Y11382D01*
G01X37055Y11344D01*
G01X37035Y11290D01*
G01X37000Y11255D01*
G01X36944Y11236D01*
G01X36890Y11236D01*
G01X36835Y11255D01*
G01X36818Y11273D01*
G01X36800Y11309D01*
G01X37175Y11617D02*
G01X37319Y11236D01*
G01X37464Y11617D02*
G01X37319Y11236D01*
G01X37622Y11617D02*
G01X37822Y11617D01*
G01X37713Y11473D01*
G01X37767Y11473D01*
G01X37804Y11455D01*
G01X37822Y11436D01*
G01X37839Y11382D01*
G01X37839Y11344D01*
G01X37822Y11290D01*
G01X37785Y11255D01*
G01X37731Y11236D01*
G01X37676Y11236D01*
G01X37622Y11255D01*
G01X37604Y11273D01*
G01X37585Y11309D01*
G01X36944Y12717D02*
G01X36800Y12336D01*
G01X36944Y12717D02*
G01X37090Y12336D01*
G01X36855Y12463D02*
G01X37035Y12463D01*
G01X37210Y12717D02*
G01X37210Y12336D01*
G01X37210Y12717D02*
G01X37375Y12717D01*
G01X37429Y12700D01*
G01X37447Y12682D01*
G01X37464Y12644D01*
G01X37464Y12609D01*
G01X37447Y12573D01*
G01X37429Y12555D01*
G01X37375Y12536D01*
G01X37210Y12536D01*
G01X37338Y12536D02*
G01X37464Y12336D01*
G01X37585Y12717D02*
G01X37585Y12336D01*
G01X37585Y12717D02*
G01X37822Y12717D01*
G01X37585Y12536D02*
G01X37731Y12536D01*
G01X37585Y12336D02*
G01X37822Y12336D01*
G01X37942Y12717D02*
G01X37942Y12336D01*
G01X37942Y12717D02*
G01X38177Y12717D01*
G01X37942Y12536D02*
G01X38086Y12536D01*
G01X36944Y13617D02*
G01X36800Y13236D01*
G01X36944Y13617D02*
G01X37090Y13236D01*
G01X36855Y13363D02*
G01X37035Y13363D01*
G01X37319Y13617D02*
G01X37264Y13600D01*
G01X37229Y13544D01*
G01X37210Y13455D01*
G01X37210Y13400D01*
G01X37229Y13309D01*
G01X37264Y13255D01*
G01X37319Y13236D01*
G01X37356Y13236D01*
G01X37410Y13255D01*
G01X37447Y13309D01*
G01X37464Y13400D01*
G01X37464Y13455D01*
G01X37447Y13544D01*
G01X37410Y13600D01*
G01X37356Y13617D01*
G01X37319Y13617D01*
G01X36944Y14717D02*
G01X36800Y14336D01*
G01X36944Y14717D02*
G01X37090Y14336D01*
G01X36855Y14463D02*
G01X37035Y14463D01*
G01X37210Y14644D02*
G01X37247Y14663D01*
G01X37302Y14717D01*
G01X37302Y14336D01*
G01X36944Y15617D02*
G01X36800Y15236D01*
G01X36944Y15617D02*
G01X37090Y15236D01*
G01X36855Y15363D02*
G01X37035Y15363D01*
G01X37229Y15526D02*
G01X37229Y15544D01*
G01X37247Y15582D01*
G01X37264Y15600D01*
G01X37302Y15617D01*
G01X37375Y15617D01*
G01X37410Y15600D01*
G01X37429Y15582D01*
G01X37447Y15544D01*
G01X37447Y15509D01*
G01X37429Y15473D01*
G01X37393Y15417D01*
G01X37210Y15236D01*
G01X37464Y15236D01*
G01X36944Y16717D02*
G01X36800Y16336D01*
G01X36944Y16717D02*
G01X37090Y16336D01*
G01X36855Y16463D02*
G01X37035Y16463D01*
G01X37247Y16717D02*
G01X37447Y16717D01*
G01X37338Y16573D01*
G01X37393Y16573D01*
G01X37429Y16555D01*
G01X37447Y16536D01*
G01X37464Y16482D01*
G01X37464Y16444D01*
G01X37447Y16390D01*
G01X37410Y16355D01*
G01X37356Y16336D01*
G01X37302Y16336D01*
G01X37247Y16355D01*
G01X37229Y16373D01*
G01X37210Y16409D01*
G01X36944Y17717D02*
G01X36800Y17336D01*
G01X36944Y17717D02*
G01X37090Y17336D01*
G01X36855Y17463D02*
G01X37035Y17463D01*
G01X37393Y17717D02*
G01X37210Y17463D01*
G01X37484Y17463D01*
G01X37393Y17717D02*
G01X37393Y17336D01*
G01X36944Y18717D02*
G01X36800Y18336D01*
G01X36944Y18717D02*
G01X37090Y18336D01*
G01X36855Y18463D02*
G01X37035Y18463D01*
G01X37429Y18717D02*
G01X37247Y18717D01*
G01X37229Y18555D01*
G01X37247Y18573D01*
G01X37302Y18590D01*
G01X37356Y18590D01*
G01X37410Y18573D01*
G01X37447Y18536D01*
G01X37464Y18482D01*
G01X37464Y18444D01*
G01X37447Y18390D01*
G01X37410Y18355D01*
G01X37356Y18336D01*
G01X37302Y18336D01*
G01X37247Y18355D01*
G01X37229Y18373D01*
G01X37210Y18409D01*
G01X36944Y19617D02*
G01X36800Y19236D01*
G01X36944Y19617D02*
G01X37090Y19236D01*
G01X36855Y19363D02*
G01X37035Y19363D01*
G01X37429Y19563D02*
G01X37410Y19600D01*
G01X37356Y19617D01*
G01X37319Y19617D01*
G01X37264Y19600D01*
G01X37229Y19544D01*
G01X37210Y19455D01*
G01X37210Y19363D01*
G01X37229Y19290D01*
G01X37264Y19255D01*
G01X37319Y19236D01*
G01X37338Y19236D01*
G01X37393Y19255D01*
G01X37429Y19290D01*
G01X37447Y19344D01*
G01X37447Y19363D01*
G01X37429Y19417D01*
G01X37393Y19455D01*
G01X37338Y19473D01*
G01X37319Y19473D01*
G01X37264Y19455D01*
G01X37229Y19417D01*
G01X37210Y19363D01*
G01X36944Y20717D02*
G01X36800Y20336D01*
G01X36944Y20717D02*
G01X37090Y20336D01*
G01X36855Y20463D02*
G01X37035Y20463D01*
G01X37464Y20717D02*
G01X37284Y20336D01*
G01X37210Y20717D02*
G01X37464Y20717D01*
G01X36800Y22717D02*
G01X36800Y22336D01*
G01X36800Y22717D02*
G01X36964Y22717D01*
G01X37018Y22700D01*
G01X37035Y22682D01*
G01X37055Y22644D01*
G01X37055Y22609D01*
G01X37035Y22573D01*
G01X37018Y22555D01*
G01X36964Y22536D01*
G01X36800Y22536D01*
G01X36927Y22536D02*
G01X37055Y22336D01*
G01X37175Y22717D02*
G01X37175Y22336D01*
G01X37175Y22717D02*
G01X37410Y22717D01*
G01X37175Y22536D02*
G01X37319Y22536D01*
G01X37175Y22336D02*
G01X37410Y22336D01*
G01X37785Y22663D02*
G01X37748Y22700D01*
G01X37694Y22717D01*
G01X37622Y22717D01*
G01X37567Y22700D01*
G01X37531Y22663D01*
G01X37531Y22627D01*
G01X37548Y22590D01*
G01X37567Y22573D01*
G01X37604Y22555D01*
G01X37713Y22517D01*
G01X37748Y22500D01*
G01X37767Y22482D01*
G01X37785Y22444D01*
G01X37785Y22390D01*
G01X37748Y22355D01*
G01X37694Y22336D01*
G01X37622Y22336D01*
G01X37567Y22355D01*
G01X37531Y22390D01*
G01X37905Y22717D02*
G01X37905Y22336D01*
G01X37905Y22717D02*
G01X38142Y22717D01*
G01X37905Y22536D02*
G01X38051Y22536D01*
G01X37905Y22336D02*
G01X38142Y22336D01*
G01X38389Y22717D02*
G01X38389Y22336D01*
G01X38261Y22717D02*
G01X38515Y22717D01*
G54D29*
G01X37672Y6500D02*
G01X38244Y6500D01*
G01X37672Y6500D02*
G01X37672Y6744D01*
G01X37700Y6826D01*
G01X37727Y6855D01*
G01X37781Y6882D01*
G01X37835Y6882D01*
G01X37890Y6855D01*
G01X37918Y6826D01*
G01X37944Y6744D01*
G01X37944Y6500D01*
G01X37944Y6690D02*
G01X38244Y6882D01*
G01X37781Y7061D02*
G01X37755Y7115D01*
G01X37672Y7198D01*
G01X38244Y7198D01*
G01X38118Y17092D02*
G01X38689Y17092D01*
G01X38118Y17092D02*
G01X38118Y17336D01*
G01X38144Y17419D01*
G01X38172Y17446D01*
G01X38227Y17473D01*
G01X38281Y17473D01*
G01X38335Y17446D01*
G01X38363Y17419D01*
G01X38389Y17336D01*
G01X38389Y17092D01*
G01X38389Y17282D02*
G01X38689Y17473D01*
G01X38254Y17680D02*
G01X38227Y17680D01*
G01X38172Y17707D01*
G01X38144Y17736D01*
G01X38118Y17790D01*
G01X38118Y17898D01*
G01X38144Y17953D01*
G01X38172Y17980D01*
G01X38227Y18007D01*
G01X38281Y18007D01*
G01X38335Y17980D01*
G01X38418Y17927D01*
G01X38689Y17653D01*
G01X38689Y18036D01*
G01X37700Y27300D02*
G01X37700Y26728D01*
G01X37700Y27300D02*
G01X37944Y27300D01*
G01X38027Y27273D01*
G01X38055Y27246D01*
G01X38081Y27190D01*
G01X38081Y27136D01*
G01X38055Y27082D01*
G01X38027Y27055D01*
G01X37944Y27028D01*
G01X37700Y27028D01*
G01X37890Y27028D02*
G01X38081Y26728D01*
G01X38315Y27300D02*
G01X38615Y27300D01*
G01X38452Y27082D01*
G01X38535Y27082D01*
G01X38589Y27055D01*
G01X38615Y27028D01*
G01X38643Y26946D01*
G01X38643Y26890D01*
G01X38615Y26809D01*
G01X38561Y26755D01*
G01X38480Y26728D01*
G01X38397Y26728D01*
G01X38315Y26755D01*
G01X38289Y26782D01*
G01X38261Y26836D01*
G01X37700Y30300D02*
G01X37700Y29728D01*
G01X37700Y30300D02*
G01X37945Y30300D01*
G01X38027Y30273D01*
G01X38055Y30246D01*
G01X38082Y30190D01*
G01X38082Y30136D01*
G01X38055Y30082D01*
G01X38027Y30055D01*
G01X37945Y30028D01*
G01X37700Y30028D01*
G01X37891Y30028D02*
G01X38082Y29728D01*
G01X38535Y30300D02*
G01X38262Y29917D01*
G01X38671Y29917D01*
G01X38535Y30300D02*
G01X38535Y29728D01*
G01X42000Y6382D02*
G01X42000Y5809D01*
G01X42000Y6382D02*
G01X42244Y6382D01*
G01X42327Y6355D01*
G01X42355Y6328D01*
G01X42381Y6273D01*
G01X42381Y6219D01*
G01X42355Y6163D01*
G01X42327Y6136D01*
G01X42244Y6109D01*
G01X42000Y6109D01*
G01X42190Y6109D02*
G01X42381Y5809D01*
G01X42889Y6382D02*
G01X42615Y6382D01*
G01X42589Y6136D01*
G01X42615Y6163D01*
G01X42697Y6190D01*
G01X42780Y6190D01*
G01X42861Y6163D01*
G01X42915Y6109D01*
G01X42943Y6028D01*
G01X42943Y5973D01*
G01X42915Y5890D01*
G01X42861Y5836D01*
G01X42780Y5809D01*
G01X42697Y5809D01*
G01X42615Y5836D01*
G01X42589Y5863D01*
G01X42561Y5919D01*
G01X42400Y14982D02*
G01X42400Y14409D01*
G01X42400Y14982D02*
G01X42644Y14982D01*
G01X42727Y14955D01*
G01X42755Y14928D01*
G01X42781Y14873D01*
G01X42781Y14819D01*
G01X42755Y14763D01*
G01X42727Y14736D01*
G01X42644Y14709D01*
G01X42400Y14709D01*
G01X42590Y14709D02*
G01X42781Y14409D01*
G01X43289Y14900D02*
G01X43261Y14955D01*
G01X43180Y14982D01*
G01X43125Y14982D01*
G01X43043Y14955D01*
G01X42989Y14873D01*
G01X42961Y14736D01*
G01X42961Y14600D01*
G01X42989Y14490D01*
G01X43043Y14436D01*
G01X43125Y14409D01*
G01X43152Y14409D01*
G01X43235Y14436D01*
G01X43289Y14490D01*
G01X43315Y14573D01*
G01X43315Y14600D01*
G01X43289Y14682D01*
G01X43235Y14736D01*
G01X43152Y14763D01*
G01X43125Y14763D01*
G01X43043Y14736D01*
G01X42989Y14682D01*
G01X42961Y14600D01*
G01X42300Y25682D02*
G01X42300Y25109D01*
G01X42300Y25682D02*
G01X42544Y25682D01*
G01X42627Y25655D01*
G01X42655Y25628D01*
G01X42681Y25573D01*
G01X42681Y25519D01*
G01X42655Y25463D01*
G01X42627Y25436D01*
G01X42544Y25409D01*
G01X42300Y25409D01*
G01X42490Y25409D02*
G01X42681Y25109D01*
G01X43243Y25682D02*
G01X42971Y25109D01*
G01X42861Y25682D02*
G01X43243Y25682D01*
G01X42700Y33282D02*
G01X42700Y32709D01*
G01X42700Y33282D02*
G01X42944Y33282D01*
G01X43027Y33255D01*
G01X43055Y33228D01*
G01X43081Y33173D01*
G01X43081Y33119D01*
G01X43055Y33063D01*
G01X43027Y33036D01*
G01X42944Y33009D01*
G01X42700Y33009D01*
G01X42890Y33009D02*
G01X43081Y32709D01*
G01X43397Y33282D02*
G01X43315Y33255D01*
G01X43289Y33200D01*
G01X43289Y33146D01*
G01X43315Y33090D01*
G01X43371Y33063D01*
G01X43480Y33036D01*
G01X43561Y33009D01*
G01X43615Y32955D01*
G01X43643Y32900D01*
G01X43643Y32819D01*
G01X43615Y32763D01*
G01X43589Y32736D01*
G01X43506Y32709D01*
G01X43397Y32709D01*
G01X43315Y32736D01*
G01X43289Y32763D01*
G01X43261Y32819D01*
G01X43261Y32900D01*
G01X43289Y32955D01*
G01X43343Y33009D01*
G01X43425Y33036D01*
G01X43535Y33063D01*
G01X43589Y33090D01*
G01X43615Y33146D01*
G01X43615Y33200D01*
G01X43589Y33255D01*
G01X43506Y33282D01*
G01X43397Y33282D01*
G01X41764Y11900D02*
G01X41709Y11873D01*
G01X41655Y11817D01*
G01X41627Y11763D01*
G01X41600Y11682D01*
G01X41600Y11546D01*
G01X41627Y11463D01*
G01X41655Y11409D01*
G01X41709Y11355D01*
G01X41764Y11328D01*
G01X41872Y11328D01*
G01X41927Y11355D01*
G01X41981Y11409D01*
G01X42009Y11463D01*
G01X42035Y11546D01*
G01X42035Y11682D01*
G01X42009Y11763D01*
G01X41981Y11817D01*
G01X41927Y11873D01*
G01X41872Y11900D01*
G01X41764Y11900D01*
G01X41844Y11436D02*
G01X42009Y11273D01*
G01X42215Y11790D02*
G01X42271Y11817D01*
G01X42352Y11900D01*
G01X42352Y11328D01*
G01X40764Y20300D02*
G01X40709Y20273D01*
G01X40655Y20217D01*
G01X40627Y20163D01*
G01X40600Y20082D01*
G01X40600Y19946D01*
G01X40627Y19863D01*
G01X40655Y19809D01*
G01X40709Y19755D01*
G01X40764Y19728D01*
G01X40872Y19728D01*
G01X40927Y19755D01*
G01X40981Y19809D01*
G01X41009Y19863D01*
G01X41035Y19946D01*
G01X41035Y20082D01*
G01X41009Y20163D01*
G01X40981Y20217D01*
G01X40927Y20273D01*
G01X40872Y20300D01*
G01X40764Y20300D01*
G01X40844Y19836D02*
G01X41009Y19673D01*
G01X41243Y20163D02*
G01X41243Y20190D01*
G01X41271Y20246D01*
G01X41297Y20273D01*
G01X41352Y20300D01*
G01X41461Y20300D01*
G01X41515Y20273D01*
G01X41543Y20246D01*
G01X41571Y20190D01*
G01X41571Y20136D01*
G01X41543Y20082D01*
G01X41489Y20000D01*
G01X41215Y19728D01*
G01X41597Y19728D01*
G01X42764Y30500D02*
G01X42709Y30473D01*
G01X42655Y30417D01*
G01X42627Y30363D01*
G01X42600Y30282D01*
G01X42600Y30146D01*
G01X42627Y30063D01*
G01X42655Y30009D01*
G01X42709Y29955D01*
G01X42764Y29928D01*
G01X42872Y29928D01*
G01X42927Y29955D01*
G01X42981Y30009D01*
G01X43009Y30063D01*
G01X43035Y30146D01*
G01X43035Y30282D01*
G01X43009Y30363D01*
G01X42981Y30417D01*
G01X42927Y30473D01*
G01X42872Y30500D01*
G01X42764Y30500D01*
G01X42844Y30036D02*
G01X43009Y29873D01*
G01X43271Y30500D02*
G01X43571Y30500D01*
G01X43406Y30282D01*
G01X43489Y30282D01*
G01X43543Y30255D01*
G01X43571Y30228D01*
G01X43597Y30146D01*
G01X43597Y30090D01*
G01X43571Y30009D01*
G01X43515Y29955D01*
G01X43435Y29928D01*
G01X43352Y29928D01*
G01X43271Y29955D01*
G01X43243Y29982D01*
G01X43215Y30036D01*
G01X43264Y38727D02*
G01X43209Y38700D01*
G01X43155Y38644D01*
G01X43127Y38590D01*
G01X43100Y38509D01*
G01X43100Y38373D01*
G01X43127Y38290D01*
G01X43155Y38236D01*
G01X43209Y38182D01*
G01X43264Y38155D01*
G01X43372Y38155D01*
G01X43427Y38182D01*
G01X43481Y38236D01*
G01X43509Y38290D01*
G01X43535Y38373D01*
G01X43535Y38509D01*
G01X43509Y38590D01*
G01X43481Y38644D01*
G01X43427Y38700D01*
G01X43372Y38727D01*
G01X43264Y38727D01*
G01X43344Y38263D02*
G01X43509Y38100D01*
G01X43989Y38727D02*
G01X43715Y38344D01*
G01X44125Y38344D01*
G01X43989Y38727D02*
G01X43989Y38155D01*
G01X46700Y6382D02*
G01X46700Y5809D01*
G01X46700Y6382D02*
G01X46944Y6382D01*
G01X47027Y6355D01*
G01X47055Y6328D01*
G01X47081Y6273D01*
G01X47081Y6219D01*
G01X47055Y6163D01*
G01X47027Y6136D01*
G01X46944Y6109D01*
G01X46700Y6109D01*
G01X46890Y6109D02*
G01X47081Y5809D01*
G01X47615Y6190D02*
G01X47589Y6109D01*
G01X47535Y6055D01*
G01X47452Y6028D01*
G01X47425Y6028D01*
G01X47343Y6055D01*
G01X47289Y6109D01*
G01X47261Y6190D01*
G01X47261Y6219D01*
G01X47289Y6300D01*
G01X47343Y6355D01*
G01X47425Y6382D01*
G01X47452Y6382D01*
G01X47535Y6355D01*
G01X47589Y6300D01*
G01X47615Y6190D01*
G01X47615Y6055D01*
G01X47589Y5919D01*
G01X47535Y5836D01*
G01X47452Y5809D01*
G01X47397Y5809D01*
G01X47315Y5836D01*
G01X47289Y5890D01*
G01X48100Y15282D02*
G01X48100Y14709D01*
G01X48100Y15282D02*
G01X48344Y15282D01*
G01X48427Y15255D01*
G01X48455Y15228D01*
G01X48481Y15173D01*
G01X48481Y15119D01*
G01X48455Y15063D01*
G01X48427Y15036D01*
G01X48344Y15009D01*
G01X48100Y15009D01*
G01X48290Y15009D02*
G01X48481Y14709D01*
G01X48661Y15173D02*
G01X48715Y15200D01*
G01X48797Y15282D01*
G01X48797Y14709D01*
G01X49142Y15282D02*
G01X49060Y15255D01*
G01X49005Y15173D01*
G01X48977Y15036D01*
G01X48977Y14955D01*
G01X49005Y14819D01*
G01X49060Y14736D01*
G01X49142Y14709D01*
G01X49196Y14709D01*
G01X49277Y14736D01*
G01X49332Y14819D01*
G01X49360Y14955D01*
G01X49360Y15036D01*
G01X49332Y15173D01*
G01X49277Y15255D01*
G01X49196Y15282D01*
G01X49142Y15282D01*
G01X47200Y25682D02*
G01X47200Y25109D01*
G01X47200Y25682D02*
G01X47444Y25682D01*
G01X47527Y25655D01*
G01X47555Y25628D01*
G01X47581Y25573D01*
G01X47581Y25519D01*
G01X47555Y25463D01*
G01X47527Y25436D01*
G01X47444Y25409D01*
G01X47200Y25409D01*
G01X47390Y25409D02*
G01X47581Y25109D01*
G01X47761Y25573D02*
G01X47815Y25600D01*
G01X47897Y25682D01*
G01X47897Y25109D01*
G01X48077Y25573D02*
G01X48132Y25600D01*
G01X48214Y25682D01*
G01X48214Y25109D01*
G01X46900Y33182D02*
G01X46900Y32609D01*
G01X46900Y33182D02*
G01X47144Y33182D01*
G01X47227Y33155D01*
G01X47255Y33128D01*
G01X47281Y33073D01*
G01X47281Y33019D01*
G01X47255Y32963D01*
G01X47227Y32936D01*
G01X47144Y32909D01*
G01X46900Y32909D01*
G01X47090Y32909D02*
G01X47281Y32609D01*
G01X47461Y33073D02*
G01X47515Y33100D01*
G01X47597Y33182D01*
G01X47597Y32609D01*
G01X47805Y33046D02*
G01X47805Y33073D01*
G01X47832Y33128D01*
G01X47860Y33155D01*
G01X47914Y33182D01*
G01X48023Y33182D01*
G01X48077Y33155D01*
G01X48105Y33128D01*
G01X48132Y33073D01*
G01X48132Y33019D01*
G01X48105Y32963D01*
G01X48051Y32882D01*
G01X47777Y32609D01*
G01X48160Y32609D01*
G01X46500Y11626D02*
G01X46500Y11055D01*
G01X46500Y11055D02*
G01X46827Y11055D01*
G01X47006Y11626D02*
G01X47006Y11055D01*
G01X47006Y11626D02*
G01X47197Y11626D01*
G01X47280Y11600D01*
G01X47335Y11544D01*
G01X47361Y11490D01*
G01X47389Y11409D01*
G01X47389Y11273D01*
G01X47361Y11190D01*
G01X47335Y11136D01*
G01X47280Y11082D01*
G01X47197Y11055D01*
G01X47006Y11055D01*
G01X47568Y11517D02*
G01X47623Y11544D01*
G01X47705Y11626D01*
G01X47705Y11055D01*
G01X46300Y20527D02*
G01X46300Y19955D01*
G01X46300Y19955D02*
G01X46627Y19955D01*
G01X46806Y20527D02*
G01X46806Y19955D01*
G01X46806Y20527D02*
G01X46997Y20527D01*
G01X47080Y20500D01*
G01X47135Y20444D01*
G01X47161Y20390D01*
G01X47189Y20309D01*
G01X47189Y20173D01*
G01X47161Y20090D01*
G01X47135Y20036D01*
G01X47080Y19982D01*
G01X46997Y19955D01*
G01X46806Y19955D01*
G01X47396Y20390D02*
G01X47396Y20417D01*
G01X47423Y20473D01*
G01X47451Y20500D01*
G01X47505Y20527D01*
G01X47614Y20527D01*
G01X47668Y20500D01*
G01X47696Y20473D01*
G01X47723Y20417D01*
G01X47723Y20363D01*
G01X47696Y20309D01*
G01X47642Y20227D01*
G01X47368Y19955D01*
G01X47751Y19955D01*
G01X46200Y29427D02*
G01X46200Y28855D01*
G01X46200Y28855D02*
G01X46527Y28855D01*
G01X46706Y29427D02*
G01X46706Y28855D01*
G01X46706Y29427D02*
G01X46897Y29427D01*
G01X46980Y29400D01*
G01X47035Y29344D01*
G01X47061Y29290D01*
G01X47089Y29209D01*
G01X47089Y29073D01*
G01X47061Y28990D01*
G01X47035Y28936D01*
G01X46980Y28882D01*
G01X46897Y28855D01*
G01X46706Y28855D01*
G01X47323Y29427D02*
G01X47623Y29427D01*
G01X47460Y29209D01*
G01X47542Y29209D01*
G01X47596Y29182D01*
G01X47623Y29155D01*
G01X47651Y29073D01*
G01X47651Y29017D01*
G01X47623Y28936D01*
G01X47568Y28882D01*
G01X47486Y28855D01*
G01X47405Y28855D01*
G01X47323Y28882D01*
G01X47296Y28909D01*
G01X47268Y28963D01*
G01X46400Y38127D02*
G01X46400Y37555D01*
G01X46400Y37555D02*
G01X46727Y37555D01*
G01X46906Y38127D02*
G01X46906Y37555D01*
G01X46906Y38127D02*
G01X47097Y38127D01*
G01X47180Y38100D01*
G01X47235Y38044D01*
G01X47261Y37990D01*
G01X47289Y37909D01*
G01X47289Y37773D01*
G01X47261Y37690D01*
G01X47235Y37636D01*
G01X47180Y37582D01*
G01X47097Y37555D01*
G01X46906Y37555D01*
G01X47742Y38127D02*
G01X47468Y37744D01*
G01X47877Y37744D01*
G01X47742Y38127D02*
G01X47742Y37555D01*
G01X48418Y8476D02*
G01X48989Y8476D01*
G01X48418Y8476D02*
G01X48418Y8667D01*
G01X48444Y8748D01*
G01X48500Y8803D01*
G01X48554Y8830D01*
G01X48635Y8857D01*
G01X48772Y8857D01*
G01X48854Y8830D01*
G01X48909Y8803D01*
G01X48963Y8748D01*
G01X48989Y8667D01*
G01X48989Y8476D01*
G01X48527Y9038D02*
G01X48500Y9092D01*
G01X48418Y9173D01*
G01X48989Y9173D01*
G01X48018Y17392D02*
G01X48589Y17392D01*
G01X48018Y17392D02*
G01X48018Y17582D01*
G01X48044Y17665D01*
G01X48100Y17719D01*
G01X48154Y17746D01*
G01X48235Y17773D01*
G01X48372Y17773D01*
G01X48454Y17746D01*
G01X48509Y17719D01*
G01X48563Y17665D01*
G01X48589Y17582D01*
G01X48589Y17392D01*
G01X48154Y17980D02*
G01X48127Y17980D01*
G01X48072Y18007D01*
G01X48044Y18036D01*
G01X48018Y18090D01*
G01X48018Y18198D01*
G01X48044Y18253D01*
G01X48072Y18280D01*
G01X48127Y18307D01*
G01X48181Y18307D01*
G01X48235Y18280D01*
G01X48318Y18227D01*
G01X48589Y17953D01*
G01X48589Y18336D01*
G01X48318Y27292D02*
G01X48889Y27292D01*
G01X48318Y27292D02*
G01X48318Y27482D01*
G01X48344Y27565D01*
G01X48400Y27619D01*
G01X48454Y27646D01*
G01X48535Y27673D01*
G01X48672Y27673D01*
G01X48754Y27646D01*
G01X48809Y27619D01*
G01X48863Y27565D01*
G01X48889Y27482D01*
G01X48889Y27292D01*
G01X48318Y27907D02*
G01X48318Y28207D01*
G01X48535Y28044D01*
G01X48535Y28127D01*
G01X48563Y28180D01*
G01X48589Y28207D01*
G01X48672Y28236D01*
G01X48727Y28236D01*
G01X48809Y28207D01*
G01X48863Y28153D01*
G01X48889Y28071D01*
G01X48889Y27990D01*
G01X48863Y27907D01*
G01X48835Y27880D01*
G01X48781Y27853D01*
G01X48018Y35171D02*
G01X48589Y35171D01*
G01X48018Y35171D02*
G01X48018Y35363D01*
G01X48044Y35444D01*
G01X48100Y35498D01*
G01X48154Y35527D01*
G01X48235Y35554D01*
G01X48372Y35554D01*
G01X48454Y35527D01*
G01X48509Y35498D01*
G01X48563Y35444D01*
G01X48589Y35363D01*
G01X48589Y35171D01*
G01X48018Y36007D02*
G01X48400Y35734D01*
G01X48400Y36142D01*
G01X48018Y36007D02*
G01X48589Y36007D01*
G01X63500Y12226D02*
G01X63500Y11655D01*
G01X63500Y12226D02*
G01X63744Y12226D01*
G01X63827Y12200D01*
G01X63855Y12173D01*
G01X63881Y12117D01*
G01X63881Y12036D01*
G01X63855Y11982D01*
G01X63827Y11955D01*
G01X63744Y11926D01*
G01X63500Y11926D01*
G01X64061Y12117D02*
G01X64115Y12144D01*
G01X64197Y12226D01*
G01X64197Y11655D01*
G01X63200Y21499D02*
G01X63200Y20927D01*
G01X63200Y21499D02*
G01X63444Y21499D01*
G01X63527Y21472D01*
G01X63555Y21445D01*
G01X63581Y21390D01*
G01X63581Y21308D01*
G01X63555Y21254D01*
G01X63527Y21227D01*
G01X63444Y21199D01*
G01X63200Y21199D01*
G01X63789Y21363D02*
G01X63789Y21390D01*
G01X63815Y21445D01*
G01X63843Y21472D01*
G01X63897Y21499D01*
G01X64006Y21499D01*
G01X64061Y21472D01*
G01X64089Y21445D01*
G01X64115Y21390D01*
G01X64115Y21336D01*
G01X64089Y21281D01*
G01X64035Y21199D01*
G01X63761Y20927D01*
G01X64143Y20927D01*
G01X63300Y30399D02*
G01X63300Y29827D01*
G01X63300Y30399D02*
G01X63544Y30399D01*
G01X63627Y30372D01*
G01X63655Y30345D01*
G01X63681Y30290D01*
G01X63681Y30208D01*
G01X63655Y30154D01*
G01X63627Y30127D01*
G01X63544Y30099D01*
G01X63300Y30099D01*
G01X63915Y30399D02*
G01X64215Y30399D01*
G01X64052Y30181D01*
G01X64135Y30181D01*
G01X64189Y30154D01*
G01X64215Y30127D01*
G01X64243Y30045D01*
G01X64243Y29990D01*
G01X64215Y29908D01*
G01X64161Y29854D01*
G01X64080Y29827D01*
G01X63997Y29827D01*
G01X63915Y29854D01*
G01X63889Y29881D01*
G01X63861Y29936D01*
G01X63200Y39299D02*
G01X63200Y38727D01*
G01X63200Y39299D02*
G01X63444Y39299D01*
G01X63527Y39272D01*
G01X63555Y39245D01*
G01X63581Y39190D01*
G01X63581Y39108D01*
G01X63555Y39054D01*
G01X63527Y39027D01*
G01X63444Y38999D01*
G01X63200Y38999D01*
G01X64035Y39299D02*
G01X63761Y38917D01*
G01X64171Y38917D01*
G01X64035Y39299D02*
G01X64035Y38727D01*
G01X55600Y12726D02*
G01X55600Y12155D01*
G01X55600Y12726D02*
G01X55844Y12726D01*
G01X55927Y12700D01*
G01X55955Y12673D01*
G01X55981Y12617D01*
G01X55981Y12563D01*
G01X55955Y12509D01*
G01X55927Y12482D01*
G01X55844Y12455D01*
G01X55600Y12455D01*
G01X55790Y12455D02*
G01X55981Y12155D01*
G01X56161Y12726D02*
G01X56161Y12155D01*
G01X56161Y12155D02*
G01X56489Y12155D01*
G01X56668Y12617D02*
G01X56723Y12644D01*
G01X56805Y12726D01*
G01X56805Y12155D01*
G01X55500Y21827D02*
G01X55500Y21255D01*
G01X55500Y21827D02*
G01X55744Y21827D01*
G01X55827Y21800D01*
G01X55855Y21773D01*
G01X55881Y21717D01*
G01X55881Y21663D01*
G01X55855Y21609D01*
G01X55827Y21582D01*
G01X55744Y21555D01*
G01X55500Y21555D01*
G01X55690Y21555D02*
G01X55881Y21255D01*
G01X56061Y21827D02*
G01X56061Y21255D01*
G01X56061Y21255D02*
G01X56389Y21255D01*
G01X56596Y21690D02*
G01X56596Y21717D01*
G01X56623Y21773D01*
G01X56651Y21800D01*
G01X56705Y21827D01*
G01X56814Y21827D01*
G01X56868Y21800D01*
G01X56896Y21773D01*
G01X56923Y21717D01*
G01X56923Y21663D01*
G01X56896Y21609D01*
G01X56842Y21527D01*
G01X56568Y21255D01*
G01X56951Y21255D01*
G01X55500Y30827D02*
G01X55500Y30255D01*
G01X55500Y30827D02*
G01X55744Y30827D01*
G01X55827Y30800D01*
G01X55855Y30773D01*
G01X55881Y30717D01*
G01X55881Y30663D01*
G01X55855Y30609D01*
G01X55827Y30582D01*
G01X55744Y30555D01*
G01X55500Y30555D01*
G01X55690Y30555D02*
G01X55881Y30255D01*
G01X56061Y30827D02*
G01X56061Y30255D01*
G01X56061Y30255D02*
G01X56389Y30255D01*
G01X56623Y30827D02*
G01X56923Y30827D01*
G01X56760Y30609D01*
G01X56842Y30609D01*
G01X56896Y30582D01*
G01X56923Y30555D01*
G01X56951Y30473D01*
G01X56951Y30417D01*
G01X56923Y30336D01*
G01X56868Y30282D01*
G01X56786Y30255D01*
G01X56705Y30255D01*
G01X56623Y30282D01*
G01X56596Y30309D01*
G01X56568Y30363D01*
G01X55500Y39627D02*
G01X55500Y39055D01*
G01X55500Y39627D02*
G01X55744Y39627D01*
G01X55827Y39600D01*
G01X55855Y39573D01*
G01X55881Y39517D01*
G01X55881Y39463D01*
G01X55855Y39409D01*
G01X55827Y39382D01*
G01X55744Y39355D01*
G01X55500Y39355D01*
G01X55690Y39355D02*
G01X55881Y39055D01*
G01X56061Y39627D02*
G01X56061Y39055D01*
G01X56061Y39055D02*
G01X56389Y39055D01*
G01X56842Y39627D02*
G01X56568Y39244D01*
G01X56977Y39244D01*
G01X56842Y39627D02*
G01X56842Y39055D01*
G01X25344Y33048D02*
G01X25344Y32476D01*
G01X25934Y32911D02*
G01X25906Y32965D01*
G01X25852Y33021D01*
G01X25797Y33048D01*
G01X25689Y33048D01*
G01X25634Y33021D01*
G01X25580Y32965D01*
G01X25552Y32911D01*
G01X25525Y32830D01*
G01X25525Y32694D01*
G01X25552Y32611D01*
G01X25580Y32557D01*
G01X25634Y32503D01*
G01X25689Y32476D01*
G01X25797Y32476D01*
G01X25852Y32503D01*
G01X25906Y32557D01*
G01X25934Y32611D01*
G01X26114Y32938D02*
G01X26168Y32965D01*
G01X26250Y33048D01*
G01X26250Y32476D01*
G01X24500Y35999D02*
G01X24500Y35427D01*
G01X24500Y35999D02*
G01X24690Y35999D01*
G01X24772Y35972D01*
G01X24827Y35917D01*
G01X24855Y35863D01*
G01X24881Y35781D01*
G01X24881Y35645D01*
G01X24855Y35563D01*
G01X24827Y35508D01*
G01X24772Y35454D01*
G01X24690Y35427D01*
G01X24500Y35427D01*
G01X25389Y35999D02*
G01X25115Y35999D01*
G01X25089Y35754D01*
G01X25115Y35781D01*
G01X25197Y35808D01*
G01X25280Y35808D01*
G01X25361Y35781D01*
G01X25415Y35727D01*
G01X25443Y35645D01*
G01X25443Y35590D01*
G01X25415Y35508D01*
G01X25361Y35454D01*
G01X25280Y35427D01*
G01X25197Y35427D01*
G01X25115Y35454D01*
G01X25089Y35481D01*
G01X25061Y35536D01*
G01X18100Y34782D02*
G01X18100Y34209D01*
G01X18100Y34782D02*
G01X18344Y34782D01*
G01X18427Y34755D01*
G01X18455Y34728D01*
G01X18481Y34673D01*
G01X18481Y34590D01*
G01X18455Y34536D01*
G01X18427Y34509D01*
G01X18344Y34482D01*
G01X18100Y34482D01*
G01X18852Y34782D02*
G01X18852Y34209D01*
G01X18661Y34782D02*
G01X19043Y34782D01*
G01X19632Y34646D02*
G01X19605Y34700D01*
G01X19551Y34755D01*
G01X19496Y34782D01*
G01X19386Y34782D01*
G01X19332Y34755D01*
G01X19277Y34700D01*
G01X19251Y34646D01*
G01X19223Y34563D01*
G01X19223Y34428D01*
G01X19251Y34346D01*
G01X19277Y34290D01*
G01X19332Y34236D01*
G01X19386Y34209D01*
G01X19496Y34209D01*
G01X19551Y34236D01*
G01X19605Y34290D01*
G01X19632Y34346D01*
G01X19813Y34673D02*
G01X19867Y34700D01*
G01X19948Y34782D01*
G01X19948Y34209D01*
G01X21409Y39946D02*
G01X21381Y40000D01*
G01X21327Y40055D01*
G01X21272Y40082D01*
G01X21164Y40082D01*
G01X21109Y40055D01*
G01X21055Y40000D01*
G01X21027Y39946D01*
G01X21000Y39863D01*
G01X21000Y39728D01*
G01X21027Y39646D01*
G01X21055Y39590D01*
G01X21109Y39536D01*
G01X21164Y39509D01*
G01X21272Y39509D01*
G01X21327Y39536D01*
G01X21381Y39590D01*
G01X21409Y39646D01*
G01X21915Y40082D02*
G01X21643Y40082D01*
G01X21615Y39836D01*
G01X21643Y39863D01*
G01X21725Y39890D01*
G01X21806Y39890D01*
G01X21889Y39863D01*
G01X21943Y39809D01*
G01X21971Y39728D01*
G01X21971Y39673D01*
G01X21943Y39590D01*
G01X21889Y39536D01*
G01X21806Y39509D01*
G01X21725Y39509D01*
G01X21643Y39536D01*
G01X21615Y39563D01*
G01X21589Y39619D01*
G01X30209Y38463D02*
G01X30181Y38517D01*
G01X30127Y38572D01*
G01X30072Y38599D01*
G01X29964Y38599D01*
G01X29909Y38572D01*
G01X29855Y38517D01*
G01X29827Y38463D01*
G01X29800Y38381D01*
G01X29800Y38245D01*
G01X29827Y38163D01*
G01X29855Y38108D01*
G01X29909Y38054D01*
G01X29964Y38027D01*
G01X30072Y38027D01*
G01X30127Y38054D01*
G01X30181Y38108D01*
G01X30209Y38163D01*
G01X30715Y38517D02*
G01X30689Y38572D01*
G01X30606Y38599D01*
G01X30552Y38599D01*
G01X30471Y38572D01*
G01X30415Y38490D01*
G01X30389Y38354D01*
G01X30389Y38217D01*
G01X30415Y38108D01*
G01X30471Y38054D01*
G01X30552Y38027D01*
G01X30580Y38027D01*
G01X30661Y38054D01*
G01X30715Y38108D01*
G01X30743Y38190D01*
G01X30743Y38217D01*
G01X30715Y38299D01*
G01X30661Y38354D01*
G01X30580Y38381D01*
G01X30552Y38381D01*
G01X30471Y38354D01*
G01X30415Y38299D01*
G01X30389Y38217D01*
G01X17609Y40646D02*
G01X17581Y40700D01*
G01X17527Y40755D01*
G01X17472Y40782D01*
G01X17364Y40782D01*
G01X17309Y40755D01*
G01X17255Y40700D01*
G01X17227Y40646D01*
G01X17200Y40563D01*
G01X17200Y40428D01*
G01X17227Y40346D01*
G01X17255Y40290D01*
G01X17309Y40236D01*
G01X17364Y40209D01*
G01X17472Y40209D01*
G01X17527Y40236D01*
G01X17581Y40290D01*
G01X17609Y40346D01*
G01X18171Y40782D02*
G01X17897Y40209D01*
G01X17789Y40782D02*
G01X18171Y40782D01*
G01X33709Y38563D02*
G01X33681Y38617D01*
G01X33627Y38672D01*
G01X33572Y38699D01*
G01X33464Y38699D01*
G01X33409Y38672D01*
G01X33355Y38617D01*
G01X33327Y38563D01*
G01X33300Y38481D01*
G01X33300Y38345D01*
G01X33327Y38263D01*
G01X33355Y38208D01*
G01X33409Y38154D01*
G01X33464Y38127D01*
G01X33572Y38127D01*
G01X33627Y38154D01*
G01X33681Y38208D01*
G01X33709Y38263D01*
G01X34025Y38699D02*
G01X33943Y38672D01*
G01X33915Y38617D01*
G01X33915Y38563D01*
G01X33943Y38508D01*
G01X33997Y38481D01*
G01X34106Y38454D01*
G01X34189Y38427D01*
G01X34243Y38372D01*
G01X34271Y38317D01*
G01X34271Y38236D01*
G01X34243Y38181D01*
G01X34215Y38154D01*
G01X34135Y38127D01*
G01X34025Y38127D01*
G01X33943Y38154D01*
G01X33915Y38181D01*
G01X33889Y38236D01*
G01X33889Y38317D01*
G01X33915Y38372D01*
G01X33971Y38427D01*
G01X34052Y38454D01*
G01X34161Y38481D01*
G01X34215Y38508D01*
G01X34243Y38563D01*
G01X34243Y38617D01*
G01X34215Y38672D01*
G01X34135Y38699D01*
G01X34025Y38699D01*
G01X27200Y41882D02*
G01X27200Y41309D01*
G01X27200Y41882D02*
G01X27444Y41882D01*
G01X27527Y41855D01*
G01X27555Y41828D01*
G01X27581Y41773D01*
G01X27581Y41690D01*
G01X27555Y41636D01*
G01X27527Y41609D01*
G01X27444Y41582D01*
G01X27200Y41582D01*
G01X28089Y41882D02*
G01X27815Y41882D01*
G01X27789Y41636D01*
G01X27815Y41663D01*
G01X27897Y41690D01*
G01X27980Y41690D01*
G01X28061Y41663D01*
G01X28115Y41609D01*
G01X28143Y41528D01*
G01X28143Y41473D01*
G01X28115Y41390D01*
G01X28061Y41336D01*
G01X27980Y41309D01*
G01X27897Y41309D01*
G01X27815Y41336D01*
G01X27789Y41363D01*
G01X27761Y41419D01*
G01X2300Y40890D02*
G01X2300Y40319D01*
G01X2300Y40890D02*
G01X2544Y40890D01*
G01X2626Y40863D01*
G01X2655Y40836D01*
G01X2682Y40782D01*
G01X2682Y40700D01*
G01X2655Y40646D01*
G01X2626Y40619D01*
G01X2544Y40590D01*
G01X2300Y40590D01*
G01X3188Y40809D02*
G01X3161Y40863D01*
G01X3080Y40890D01*
G01X3025Y40890D01*
G01X2944Y40863D01*
G01X2888Y40782D01*
G01X2861Y40646D01*
G01X2861Y40509D01*
G01X2888Y40400D01*
G01X2944Y40346D01*
G01X3025Y40319D01*
G01X3053Y40319D01*
G01X3134Y40346D01*
G01X3188Y40400D01*
G01X3215Y40482D01*
G01X3215Y40509D01*
G01X3188Y40590D01*
G01X3134Y40646D01*
G01X3053Y40673D01*
G01X3025Y40673D01*
G01X2944Y40646D01*
G01X2888Y40590D01*
G01X2861Y40509D01*
G01X2200Y35882D02*
G01X2200Y35309D01*
G01X2200Y35882D02*
G01X2444Y35882D01*
G01X2526Y35855D01*
G01X2555Y35828D01*
G01X2582Y35773D01*
G01X2582Y35690D01*
G01X2555Y35636D01*
G01X2526Y35609D01*
G01X2444Y35582D01*
G01X2200Y35582D01*
G01X3144Y35882D02*
G01X2871Y35309D01*
G01X2761Y35882D02*
G01X3144Y35882D01*
G01X2300Y30882D02*
G01X2300Y30309D01*
G01X2300Y30882D02*
G01X2544Y30882D01*
G01X2626Y30855D01*
G01X2655Y30828D01*
G01X2682Y30773D01*
G01X2682Y30690D01*
G01X2655Y30636D01*
G01X2626Y30609D01*
G01X2544Y30582D01*
G01X2300Y30582D01*
G01X2998Y30882D02*
G01X2915Y30855D01*
G01X2888Y30800D01*
G01X2888Y30746D01*
G01X2915Y30690D01*
G01X2971Y30663D01*
G01X3080Y30636D01*
G01X3161Y30609D01*
G01X3215Y30555D01*
G01X3244Y30500D01*
G01X3244Y30419D01*
G01X3215Y30363D01*
G01X3188Y30336D01*
G01X3107Y30309D01*
G01X2998Y30309D01*
G01X2915Y30336D01*
G01X2888Y30363D01*
G01X2861Y30419D01*
G01X2861Y30500D01*
G01X2888Y30555D01*
G01X2944Y30609D01*
G01X3025Y30636D01*
G01X3134Y30663D01*
G01X3188Y30690D01*
G01X3215Y30746D01*
G01X3215Y30800D01*
G01X3188Y30855D01*
G01X3107Y30882D01*
G01X2998Y30882D01*
G01X4618Y37255D02*
G01X5189Y37255D01*
G01X4618Y37255D02*
G01X4618Y37500D01*
G01X4644Y37582D01*
G01X4672Y37609D01*
G01X4727Y37636D01*
G01X4781Y37636D01*
G01X4835Y37609D01*
G01X4863Y37582D01*
G01X4889Y37500D01*
G01X4889Y37255D01*
G01X4889Y37446D02*
G01X5189Y37636D01*
G01X4727Y37817D02*
G01X4700Y37871D01*
G01X4618Y37953D01*
G01X5189Y37953D01*
G01X4618Y38188D02*
G01X4618Y38488D01*
G01X4835Y38323D01*
G01X4835Y38405D01*
G01X4863Y38459D01*
G01X4889Y38488D01*
G01X4972Y38515D01*
G01X5027Y38515D01*
G01X5109Y38488D01*
G01X5163Y38432D01*
G01X5189Y38351D01*
G01X5189Y38269D01*
G01X5163Y38188D01*
G01X5135Y38159D01*
G01X5081Y38132D01*
G01X4417Y32834D02*
G01X4989Y32834D01*
G01X4417Y32834D02*
G01X4417Y33080D01*
G01X4444Y33161D01*
G01X4471Y33190D01*
G01X4526Y33217D01*
G01X4580Y33217D01*
G01X4635Y33190D01*
G01X4663Y33161D01*
G01X4689Y33080D01*
G01X4689Y32834D01*
G01X4689Y33026D02*
G01X4989Y33217D01*
G01X4526Y33396D02*
G01X4500Y33451D01*
G01X4417Y33532D01*
G01X4989Y33532D01*
G01X4417Y33986D02*
G01X4800Y33713D01*
G01X4800Y34121D01*
G01X4417Y33986D02*
G01X4989Y33986D01*
G01X4618Y28255D02*
G01X5189Y28255D01*
G01X4618Y28255D02*
G01X4618Y28500D01*
G01X4644Y28582D01*
G01X4672Y28609D01*
G01X4727Y28636D01*
G01X4781Y28636D01*
G01X4835Y28609D01*
G01X4863Y28582D01*
G01X4889Y28500D01*
G01X4889Y28255D01*
G01X4889Y28446D02*
G01X5189Y28636D01*
G01X4727Y28817D02*
G01X4700Y28871D01*
G01X4618Y28953D01*
G01X5189Y28953D01*
G01X4618Y29459D02*
G01X4618Y29188D01*
G01X4863Y29159D01*
G01X4835Y29188D01*
G01X4809Y29269D01*
G01X4809Y29351D01*
G01X4835Y29432D01*
G01X4889Y29488D01*
G01X4972Y29515D01*
G01X5027Y29515D01*
G01X5109Y29488D01*
G01X5163Y29432D01*
G01X5189Y29351D01*
G01X5189Y29269D01*
G01X5163Y29188D01*
G01X5135Y29159D01*
G01X5081Y29132D01*
G01X7718Y37275D02*
G01X8289Y37275D01*
G01X7718Y37275D02*
G01X7718Y37519D01*
G01X7744Y37602D01*
G01X7772Y37630D01*
G01X7827Y37657D01*
G01X7881Y37657D01*
G01X7935Y37630D01*
G01X7963Y37602D01*
G01X7989Y37519D01*
G01X7989Y37275D01*
G01X7989Y37465D02*
G01X8289Y37657D01*
G01X7827Y37836D02*
G01X7800Y37890D01*
G01X7718Y37973D01*
G01X8289Y37973D01*
G01X7800Y38480D02*
G01X7744Y38453D01*
G01X7718Y38371D01*
G01X7718Y38317D01*
G01X7744Y38234D01*
G01X7827Y38180D01*
G01X7963Y38153D01*
G01X8100Y38153D01*
G01X8209Y38180D01*
G01X8263Y38234D01*
G01X8289Y38317D01*
G01X8289Y38344D01*
G01X8263Y38426D01*
G01X8209Y38480D01*
G01X8127Y38507D01*
G01X8100Y38507D01*
G01X8018Y38480D01*
G01X7963Y38426D01*
G01X7935Y38344D01*
G01X7935Y38317D01*
G01X7963Y38234D01*
G01X8018Y38180D01*
G01X8100Y38153D01*
G01X7718Y32755D02*
G01X8289Y32755D01*
G01X7718Y32755D02*
G01X7718Y33000D01*
G01X7744Y33082D01*
G01X7772Y33109D01*
G01X7827Y33136D01*
G01X7881Y33136D01*
G01X7935Y33109D01*
G01X7963Y33082D01*
G01X7989Y33000D01*
G01X7989Y32755D01*
G01X7989Y32946D02*
G01X8289Y33136D01*
G01X7827Y33317D02*
G01X7800Y33371D01*
G01X7718Y33453D01*
G01X8289Y33453D01*
G01X7718Y34015D02*
G01X8289Y33742D01*
G01X7718Y33632D02*
G01X7718Y34015D01*
G01X7618Y28255D02*
G01X8189Y28255D01*
G01X7618Y28255D02*
G01X7618Y28500D01*
G01X7644Y28582D01*
G01X7672Y28609D01*
G01X7727Y28636D01*
G01X7781Y28636D01*
G01X7835Y28609D01*
G01X7863Y28582D01*
G01X7889Y28500D01*
G01X7889Y28255D01*
G01X7889Y28446D02*
G01X8189Y28636D01*
G01X7727Y28817D02*
G01X7700Y28871D01*
G01X7618Y28953D01*
G01X8189Y28953D01*
G01X7618Y29269D02*
G01X7644Y29188D01*
G01X7700Y29159D01*
G01X7753Y29159D01*
G01X7809Y29188D01*
G01X7835Y29242D01*
G01X7863Y29351D01*
G01X7889Y29432D01*
G01X7944Y29488D01*
G01X8000Y29515D01*
G01X8081Y29515D01*
G01X8135Y29488D01*
G01X8163Y29459D01*
G01X8189Y29378D01*
G01X8189Y29269D01*
G01X8163Y29188D01*
G01X8135Y29159D01*
G01X8081Y29132D01*
G01X8000Y29132D01*
G01X7944Y29159D01*
G01X7889Y29215D01*
G01X7863Y29296D01*
G01X7835Y29405D01*
G01X7809Y29459D01*
G01X7753Y29488D01*
G01X7700Y29488D01*
G01X7644Y29459D01*
G01X7618Y29378D01*
G01X7618Y29269D01*
G01X2300Y24290D02*
G01X2300Y23719D01*
G01X2300Y24290D02*
G01X2544Y24290D01*
G01X2626Y24263D01*
G01X2655Y24236D01*
G01X2682Y24182D01*
G01X2682Y24100D01*
G01X2655Y24046D01*
G01X2626Y24019D01*
G01X2544Y23990D01*
G01X2300Y23990D01*
G01X3215Y24100D02*
G01X3188Y24019D01*
G01X3134Y23963D01*
G01X3053Y23936D01*
G01X3025Y23936D01*
G01X2944Y23963D01*
G01X2888Y24019D01*
G01X2861Y24100D01*
G01X2861Y24128D01*
G01X2888Y24209D01*
G01X2944Y24263D01*
G01X3025Y24290D01*
G01X3053Y24290D01*
G01X3134Y24263D01*
G01X3188Y24209D01*
G01X3215Y24100D01*
G01X3215Y23963D01*
G01X3188Y23828D01*
G01X3134Y23746D01*
G01X3053Y23719D01*
G01X2998Y23719D01*
G01X2915Y23746D01*
G01X2888Y23800D01*
G01X2100Y19182D02*
G01X2100Y18609D01*
G01X2100Y19182D02*
G01X2344Y19182D01*
G01X2426Y19155D01*
G01X2455Y19128D01*
G01X2482Y19073D01*
G01X2482Y18990D01*
G01X2455Y18936D01*
G01X2426Y18909D01*
G01X2344Y18882D01*
G01X2100Y18882D01*
G01X2661Y19073D02*
G01X2715Y19100D01*
G01X2798Y19182D01*
G01X2798Y18609D01*
G01X3142Y19182D02*
G01X3059Y19155D01*
G01X3005Y19073D01*
G01X2978Y18936D01*
G01X2978Y18855D01*
G01X3005Y18719D01*
G01X3059Y18636D01*
G01X3142Y18609D01*
G01X3196Y18609D01*
G01X3278Y18636D01*
G01X3332Y18719D01*
G01X3359Y18855D01*
G01X3359Y18936D01*
G01X3332Y19073D01*
G01X3278Y19155D01*
G01X3196Y19182D01*
G01X3142Y19182D01*
G01X2100Y13582D02*
G01X2100Y13009D01*
G01X2100Y13582D02*
G01X2344Y13582D01*
G01X2426Y13555D01*
G01X2455Y13528D01*
G01X2482Y13473D01*
G01X2482Y13390D01*
G01X2455Y13336D01*
G01X2426Y13309D01*
G01X2344Y13282D01*
G01X2100Y13282D01*
G01X2661Y13473D02*
G01X2715Y13500D01*
G01X2798Y13582D01*
G01X2798Y13009D01*
G01X2978Y13473D02*
G01X3032Y13500D01*
G01X3115Y13582D01*
G01X3115Y13009D01*
G01X2100Y8682D02*
G01X2100Y8109D01*
G01X2100Y8682D02*
G01X2344Y8682D01*
G01X2426Y8655D01*
G01X2455Y8628D01*
G01X2482Y8573D01*
G01X2482Y8490D01*
G01X2455Y8436D01*
G01X2426Y8409D01*
G01X2344Y8382D01*
G01X2100Y8382D01*
G01X2661Y8573D02*
G01X2715Y8600D01*
G01X2798Y8682D01*
G01X2798Y8109D01*
G01X3005Y8546D02*
G01X3005Y8573D01*
G01X3032Y8628D01*
G01X3059Y8655D01*
G01X3115Y8682D01*
G01X3223Y8682D01*
G01X3278Y8655D01*
G01X3305Y8628D01*
G01X3332Y8573D01*
G01X3332Y8519D01*
G01X3305Y8463D01*
G01X3251Y8382D01*
G01X2978Y8109D01*
G01X3359Y8109D01*
G01X4918Y20675D02*
G01X5489Y20675D01*
G01X4918Y20675D02*
G01X4918Y20919D01*
G01X4944Y21002D01*
G01X4972Y21030D01*
G01X5027Y21057D01*
G01X5081Y21057D01*
G01X5135Y21030D01*
G01X5163Y21002D01*
G01X5189Y20919D01*
G01X5189Y20675D01*
G01X5189Y20865D02*
G01X5489Y21057D01*
G01X5027Y21236D02*
G01X5000Y21290D01*
G01X4918Y21373D01*
G01X5489Y21373D01*
G01X5109Y21907D02*
G01X5189Y21880D01*
G01X5244Y21826D01*
G01X5272Y21744D01*
G01X5272Y21717D01*
G01X5244Y21634D01*
G01X5189Y21580D01*
G01X5109Y21553D01*
G01X5081Y21553D01*
G01X5000Y21580D01*
G01X4944Y21634D01*
G01X4918Y21717D01*
G01X4918Y21744D01*
G01X4944Y21826D01*
G01X5000Y21880D01*
G01X5109Y21907D01*
G01X5244Y21907D01*
G01X5381Y21880D01*
G01X5463Y21826D01*
G01X5489Y21744D01*
G01X5489Y21690D01*
G01X5463Y21607D01*
G01X5409Y21580D01*
G01X5018Y15571D02*
G01X5589Y15571D01*
G01X5018Y15571D02*
G01X5018Y15815D01*
G01X5044Y15898D01*
G01X5072Y15926D01*
G01X5127Y15953D01*
G01X5181Y15953D01*
G01X5235Y15926D01*
G01X5263Y15898D01*
G01X5289Y15815D01*
G01X5289Y15571D01*
G01X5289Y15761D02*
G01X5589Y15953D01*
G01X5153Y16159D02*
G01X5127Y16159D01*
G01X5072Y16186D01*
G01X5044Y16215D01*
G01X5018Y16269D01*
G01X5018Y16378D01*
G01X5044Y16432D01*
G01X5072Y16459D01*
G01X5127Y16486D01*
G01X5181Y16486D01*
G01X5235Y16459D01*
G01X5318Y16405D01*
G01X5589Y16132D01*
G01X5589Y16515D01*
G01X5018Y16857D02*
G01X5044Y16776D01*
G01X5127Y16721D01*
G01X5263Y16694D01*
G01X5344Y16694D01*
G01X5481Y16721D01*
G01X5563Y16776D01*
G01X5589Y16857D01*
G01X5589Y16913D01*
G01X5563Y16994D01*
G01X5481Y17048D01*
G01X5344Y17076D01*
G01X5263Y17076D01*
G01X5127Y17048D01*
G01X5044Y16994D01*
G01X5018Y16913D01*
G01X5018Y16857D01*
G01X4818Y10555D02*
G01X5389Y10555D01*
G01X4818Y10555D02*
G01X4818Y10800D01*
G01X4844Y10882D01*
G01X4872Y10909D01*
G01X4927Y10936D01*
G01X4981Y10936D01*
G01X5035Y10909D01*
G01X5063Y10882D01*
G01X5089Y10800D01*
G01X5089Y10555D01*
G01X5089Y10746D02*
G01X5389Y10936D01*
G01X4953Y11144D02*
G01X4927Y11144D01*
G01X4872Y11171D01*
G01X4844Y11198D01*
G01X4818Y11253D01*
G01X4818Y11361D01*
G01X4844Y11417D01*
G01X4872Y11444D01*
G01X4927Y11471D01*
G01X4981Y11471D01*
G01X5035Y11444D01*
G01X5118Y11390D01*
G01X5389Y11117D01*
G01X5389Y11498D01*
G01X4927Y11678D02*
G01X4900Y11732D01*
G01X4818Y11815D01*
G01X5389Y11815D01*
G01X4818Y4871D02*
G01X5389Y4871D01*
G01X4818Y4871D02*
G01X4818Y5115D01*
G01X4844Y5198D01*
G01X4872Y5226D01*
G01X4927Y5253D01*
G01X4981Y5253D01*
G01X5035Y5226D01*
G01X5063Y5198D01*
G01X5089Y5115D01*
G01X5089Y4871D01*
G01X5089Y5061D02*
G01X5389Y5253D01*
G01X4953Y5459D02*
G01X4927Y5459D01*
G01X4872Y5486D01*
G01X4844Y5515D01*
G01X4818Y5569D01*
G01X4818Y5678D01*
G01X4844Y5732D01*
G01X4872Y5759D01*
G01X4927Y5786D01*
G01X4981Y5786D01*
G01X5035Y5759D01*
G01X5118Y5705D01*
G01X5389Y5432D01*
G01X5389Y5815D01*
G01X4953Y6021D02*
G01X4927Y6021D01*
G01X4872Y6048D01*
G01X4844Y6076D01*
G01X4818Y6130D01*
G01X4818Y6240D01*
G01X4844Y6294D01*
G01X4872Y6321D01*
G01X4927Y6348D01*
G01X4981Y6348D01*
G01X5035Y6321D01*
G01X5118Y6267D01*
G01X5389Y5994D01*
G01X5389Y6376D01*
G01X7918Y20471D02*
G01X8489Y20471D01*
G01X7918Y20471D02*
G01X7918Y20715D01*
G01X7944Y20798D01*
G01X7972Y20826D01*
G01X8027Y20853D01*
G01X8081Y20853D01*
G01X8135Y20826D01*
G01X8163Y20798D01*
G01X8189Y20715D01*
G01X8189Y20471D01*
G01X8189Y20661D02*
G01X8489Y20853D01*
G01X8053Y21059D02*
G01X8027Y21059D01*
G01X7972Y21086D01*
G01X7944Y21115D01*
G01X7918Y21169D01*
G01X7918Y21278D01*
G01X7944Y21332D01*
G01X7972Y21359D01*
G01X8027Y21386D01*
G01X8081Y21386D01*
G01X8135Y21359D01*
G01X8218Y21305D01*
G01X8489Y21032D01*
G01X8489Y21415D01*
G01X7918Y21648D02*
G01X7918Y21948D01*
G01X8135Y21786D01*
G01X8135Y21867D01*
G01X8163Y21921D01*
G01X8189Y21948D01*
G01X8272Y21976D01*
G01X8327Y21976D01*
G01X8409Y21948D01*
G01X8463Y21894D01*
G01X8489Y21813D01*
G01X8489Y21730D01*
G01X8463Y21648D01*
G01X8435Y21621D01*
G01X8381Y21594D01*
G01X7718Y15450D02*
G01X8289Y15450D01*
G01X7718Y15450D02*
G01X7718Y15694D01*
G01X7744Y15776D01*
G01X7772Y15805D01*
G01X7827Y15832D01*
G01X7881Y15832D01*
G01X7935Y15805D01*
G01X7963Y15776D01*
G01X7989Y15694D01*
G01X7989Y15450D01*
G01X7989Y15640D02*
G01X8289Y15832D01*
G01X7853Y16038D02*
G01X7827Y16038D01*
G01X7772Y16065D01*
G01X7744Y16094D01*
G01X7718Y16148D01*
G01X7718Y16257D01*
G01X7744Y16311D01*
G01X7772Y16338D01*
G01X7827Y16365D01*
G01X7881Y16365D01*
G01X7935Y16338D01*
G01X8018Y16284D01*
G01X8289Y16011D01*
G01X8289Y16394D01*
G01X7718Y16846D02*
G01X8100Y16573D01*
G01X8100Y16982D01*
G01X7718Y16846D02*
G01X8289Y16846D01*
G01X7718Y10471D02*
G01X8289Y10471D01*
G01X7718Y10471D02*
G01X7718Y10715D01*
G01X7744Y10798D01*
G01X7772Y10826D01*
G01X7827Y10853D01*
G01X7881Y10853D01*
G01X7935Y10826D01*
G01X7963Y10798D01*
G01X7989Y10715D01*
G01X7989Y10471D01*
G01X7989Y10661D02*
G01X8289Y10853D01*
G01X7853Y11059D02*
G01X7827Y11059D01*
G01X7772Y11086D01*
G01X7744Y11115D01*
G01X7718Y11169D01*
G01X7718Y11278D01*
G01X7744Y11332D01*
G01X7772Y11359D01*
G01X7827Y11386D01*
G01X7881Y11386D01*
G01X7935Y11359D01*
G01X8018Y11305D01*
G01X8289Y11032D01*
G01X8289Y11415D01*
G01X7718Y11921D02*
G01X7718Y11648D01*
G01X7963Y11621D01*
G01X7935Y11648D01*
G01X7909Y11730D01*
G01X7909Y11813D01*
G01X7935Y11894D01*
G01X7989Y11948D01*
G01X8072Y11976D01*
G01X8127Y11976D01*
G01X8209Y11948D01*
G01X8263Y11894D01*
G01X8289Y11813D01*
G01X8289Y11730D01*
G01X8263Y11648D01*
G01X8235Y11621D01*
G01X8181Y11594D01*
G01X7818Y3690D02*
G01X8389Y3690D01*
G01X7818Y3690D02*
G01X7818Y3936D01*
G01X7844Y4017D01*
G01X7872Y4046D01*
G01X7927Y4073D01*
G01X7981Y4073D01*
G01X8035Y4046D01*
G01X8063Y4017D01*
G01X8089Y3936D01*
G01X8089Y3690D01*
G01X8089Y3882D02*
G01X8389Y4073D01*
G01X7953Y4280D02*
G01X7927Y4280D01*
G01X7872Y4307D01*
G01X7844Y4334D01*
G01X7818Y4388D01*
G01X7818Y4498D01*
G01X7844Y4553D01*
G01X7872Y4580D01*
G01X7927Y4607D01*
G01X7981Y4607D01*
G01X8035Y4580D01*
G01X8118Y4526D01*
G01X8389Y4253D01*
G01X8389Y4634D01*
G01X7900Y5142D02*
G01X7844Y5115D01*
G01X7818Y5032D01*
G01X7818Y4978D01*
G01X7844Y4896D01*
G01X7927Y4842D01*
G01X8063Y4815D01*
G01X8200Y4815D01*
G01X8309Y4842D01*
G01X8363Y4896D01*
G01X8389Y4978D01*
G01X8389Y5005D01*
G01X8363Y5086D01*
G01X8309Y5142D01*
G01X8227Y5169D01*
G01X8200Y5169D01*
G01X8118Y5142D01*
G01X8063Y5086D01*
G01X8035Y5005D01*
G01X8035Y4978D01*
G01X8063Y4896D01*
G01X8118Y4842D01*
G01X8200Y4815D01*
G01X12300Y18899D02*
G01X12300Y18490D01*
G01X12327Y18408D01*
G01X12381Y18354D01*
G01X12464Y18327D01*
G01X12518Y18327D01*
G01X12600Y18354D01*
G01X12655Y18408D01*
G01X12681Y18490D01*
G01X12681Y18899D01*
G01X12915Y18899D02*
G01X13215Y18899D01*
G01X13052Y18681D01*
G01X13135Y18681D01*
G01X13189Y18654D01*
G01X13215Y18627D01*
G01X13243Y18545D01*
G01X13243Y18490D01*
G01X13215Y18408D01*
G01X13161Y18354D01*
G01X13080Y18327D01*
G01X12997Y18327D01*
G01X12915Y18354D01*
G01X12889Y18381D01*
G01X12861Y18436D01*
G01X21500Y22982D02*
G01X21500Y22409D01*
G01X21500Y22982D02*
G01X21744Y22982D01*
G01X21827Y22955D01*
G01X21855Y22928D01*
G01X21881Y22873D01*
G01X21881Y22819D01*
G01X21855Y22763D01*
G01X21827Y22736D01*
G01X21744Y22709D01*
G01X21500Y22709D01*
G01X21690Y22709D02*
G01X21881Y22409D01*
G01X22089Y22846D02*
G01X22089Y22873D01*
G01X22115Y22928D01*
G01X22143Y22955D01*
G01X22197Y22982D01*
G01X22306Y22982D01*
G01X22361Y22955D01*
G01X22389Y22928D01*
G01X22415Y22873D01*
G01X22415Y22819D01*
G01X22389Y22763D01*
G01X22335Y22682D01*
G01X22061Y22409D01*
G01X22443Y22409D01*
G01X23005Y22982D02*
G01X22732Y22409D01*
G01X22623Y22982D02*
G01X23005Y22982D01*
G01X20000Y18699D02*
G01X20000Y18127D01*
G01X20000Y18699D02*
G01X20244Y18699D01*
G01X20327Y18672D01*
G01X20355Y18645D01*
G01X20381Y18590D01*
G01X20381Y18536D01*
G01X20355Y18481D01*
G01X20327Y18454D01*
G01X20244Y18427D01*
G01X20000Y18427D01*
G01X20190Y18427D02*
G01X20381Y18127D01*
G01X20589Y18563D02*
G01X20589Y18590D01*
G01X20615Y18645D01*
G01X20643Y18672D01*
G01X20697Y18699D01*
G01X20806Y18699D01*
G01X20861Y18672D01*
G01X20889Y18645D01*
G01X20915Y18590D01*
G01X20915Y18536D01*
G01X20889Y18481D01*
G01X20835Y18399D01*
G01X20561Y18127D01*
G01X20943Y18127D01*
G01X21260Y18699D02*
G01X21177Y18672D01*
G01X21151Y18617D01*
G01X21151Y18563D01*
G01X21177Y18508D01*
G01X21232Y18481D01*
G01X21342Y18454D01*
G01X21423Y18427D01*
G01X21477Y18372D01*
G01X21505Y18317D01*
G01X21505Y18236D01*
G01X21477Y18181D01*
G01X21451Y18154D01*
G01X21368Y18127D01*
G01X21260Y18127D01*
G01X21177Y18154D01*
G01X21151Y18181D01*
G01X21123Y18236D01*
G01X21123Y18317D01*
G01X21151Y18372D01*
G01X21205Y18427D01*
G01X21286Y18454D01*
G01X21396Y18481D01*
G01X21451Y18508D01*
G01X21477Y18563D01*
G01X21477Y18617D01*
G01X21451Y18672D01*
G01X21368Y18699D01*
G01X21260Y18699D01*
G01X21400Y13782D02*
G01X21400Y13209D01*
G01X21400Y13782D02*
G01X21644Y13782D01*
G01X21727Y13755D01*
G01X21755Y13728D01*
G01X21781Y13673D01*
G01X21781Y13619D01*
G01X21755Y13563D01*
G01X21727Y13536D01*
G01X21644Y13509D01*
G01X21400Y13509D01*
G01X21590Y13509D02*
G01X21781Y13209D01*
G01X21989Y13646D02*
G01X21989Y13673D01*
G01X22015Y13728D01*
G01X22043Y13755D01*
G01X22097Y13782D01*
G01X22206Y13782D01*
G01X22261Y13755D01*
G01X22289Y13728D01*
G01X22315Y13673D01*
G01X22315Y13619D01*
G01X22289Y13563D01*
G01X22235Y13482D01*
G01X21961Y13209D01*
G01X22343Y13209D01*
G01X22877Y13590D02*
G01X22851Y13509D01*
G01X22796Y13455D01*
G01X22714Y13428D01*
G01X22686Y13428D01*
G01X22605Y13455D01*
G01X22551Y13509D01*
G01X22523Y13590D01*
G01X22523Y13619D01*
G01X22551Y13700D01*
G01X22605Y13755D01*
G01X22686Y13782D01*
G01X22714Y13782D01*
G01X22796Y13755D01*
G01X22851Y13700D01*
G01X22877Y13590D01*
G01X22877Y13455D01*
G01X22851Y13319D01*
G01X22796Y13236D01*
G01X22714Y13209D01*
G01X22660Y13209D01*
G01X22577Y13236D01*
G01X22551Y13290D01*
G01X21400Y9282D02*
G01X21400Y8709D01*
G01X21400Y9282D02*
G01X21644Y9282D01*
G01X21727Y9255D01*
G01X21755Y9228D01*
G01X21781Y9173D01*
G01X21781Y9119D01*
G01X21755Y9063D01*
G01X21727Y9036D01*
G01X21644Y9009D01*
G01X21400Y9009D01*
G01X21590Y9009D02*
G01X21781Y8709D01*
G01X22015Y9282D02*
G01X22315Y9282D01*
G01X22152Y9063D01*
G01X22235Y9063D01*
G01X22289Y9036D01*
G01X22315Y9009D01*
G01X22343Y8928D01*
G01X22343Y8873D01*
G01X22315Y8790D01*
G01X22261Y8736D01*
G01X22180Y8709D01*
G01X22097Y8709D01*
G01X22015Y8736D01*
G01X21989Y8763D01*
G01X21961Y8819D01*
G01X22686Y9282D02*
G01X22605Y9255D01*
G01X22551Y9173D01*
G01X22523Y9036D01*
G01X22523Y8955D01*
G01X22551Y8819D01*
G01X22605Y8736D01*
G01X22686Y8709D01*
G01X22742Y8709D01*
G01X22823Y8736D01*
G01X22877Y8819D01*
G01X22905Y8955D01*
G01X22905Y9036D01*
G01X22877Y9173D01*
G01X22823Y9255D01*
G01X22742Y9282D01*
G01X22686Y9282D01*
G01X17400Y22499D02*
G01X17400Y21927D01*
G01X17400Y21927D02*
G01X17727Y21927D01*
G01X17906Y22499D02*
G01X17906Y21927D01*
G01X17906Y22499D02*
G01X18097Y22499D01*
G01X18180Y22472D01*
G01X18235Y22417D01*
G01X18261Y22363D01*
G01X18289Y22281D01*
G01X18289Y22145D01*
G01X18261Y22063D01*
G01X18235Y22008D01*
G01X18180Y21954D01*
G01X18097Y21927D01*
G01X17906Y21927D01*
G01X18796Y22499D02*
G01X18523Y22499D01*
G01X18496Y22254D01*
G01X18523Y22281D01*
G01X18605Y22308D01*
G01X18686Y22308D01*
G01X18768Y22281D01*
G01X18823Y22227D01*
G01X18851Y22145D01*
G01X18851Y22090D01*
G01X18823Y22008D01*
G01X18768Y21954D01*
G01X18686Y21927D01*
G01X18605Y21927D01*
G01X18523Y21954D01*
G01X18496Y21981D01*
G01X18468Y22036D01*
G01X17400Y18082D02*
G01X17400Y17509D01*
G01X17400Y17509D02*
G01X17727Y17509D01*
G01X17906Y18082D02*
G01X17906Y17509D01*
G01X17906Y18082D02*
G01X18097Y18082D01*
G01X18180Y18055D01*
G01X18235Y18000D01*
G01X18261Y17946D01*
G01X18289Y17863D01*
G01X18289Y17728D01*
G01X18261Y17646D01*
G01X18235Y17590D01*
G01X18180Y17536D01*
G01X18097Y17509D01*
G01X17906Y17509D01*
G01X18796Y18000D02*
G01X18768Y18055D01*
G01X18686Y18082D01*
G01X18632Y18082D01*
G01X18551Y18055D01*
G01X18496Y17973D01*
G01X18468Y17836D01*
G01X18468Y17700D01*
G01X18496Y17590D01*
G01X18551Y17536D01*
G01X18632Y17509D01*
G01X18660Y17509D01*
G01X18742Y17536D01*
G01X18796Y17590D01*
G01X18823Y17673D01*
G01X18823Y17700D01*
G01X18796Y17782D01*
G01X18742Y17836D01*
G01X18660Y17863D01*
G01X18632Y17863D01*
G01X18551Y17836D01*
G01X18496Y17782D01*
G01X18468Y17700D01*
G01X17400Y13682D02*
G01X17400Y13109D01*
G01X17400Y13109D02*
G01X17727Y13109D01*
G01X17906Y13682D02*
G01X17906Y13109D01*
G01X17906Y13682D02*
G01X18097Y13682D01*
G01X18180Y13655D01*
G01X18235Y13600D01*
G01X18261Y13546D01*
G01X18289Y13463D01*
G01X18289Y13328D01*
G01X18261Y13246D01*
G01X18235Y13190D01*
G01X18180Y13136D01*
G01X18097Y13109D01*
G01X17906Y13109D01*
G01X18851Y13682D02*
G01X18577Y13109D01*
G01X18468Y13682D02*
G01X18851Y13682D01*
G01X17400Y8682D02*
G01X17400Y8109D01*
G01X17400Y8109D02*
G01X17727Y8109D01*
G01X17906Y8682D02*
G01X17906Y8109D01*
G01X17906Y8682D02*
G01X18097Y8682D01*
G01X18180Y8655D01*
G01X18235Y8600D01*
G01X18261Y8546D01*
G01X18289Y8463D01*
G01X18289Y8328D01*
G01X18261Y8246D01*
G01X18235Y8190D01*
G01X18180Y8136D01*
G01X18097Y8109D01*
G01X17906Y8109D01*
G01X18605Y8682D02*
G01X18523Y8655D01*
G01X18496Y8600D01*
G01X18496Y8546D01*
G01X18523Y8490D01*
G01X18577Y8463D01*
G01X18686Y8436D01*
G01X18768Y8409D01*
G01X18823Y8355D01*
G01X18851Y8300D01*
G01X18851Y8219D01*
G01X18823Y8163D01*
G01X18796Y8136D01*
G01X18714Y8109D01*
G01X18605Y8109D01*
G01X18523Y8136D01*
G01X18496Y8163D01*
G01X18468Y8219D01*
G01X18468Y8300D01*
G01X18496Y8355D01*
G01X18551Y8409D01*
G01X18632Y8436D01*
G01X18742Y8463D01*
G01X18796Y8490D01*
G01X18823Y8546D01*
G01X18823Y8600D01*
G01X18796Y8655D01*
G01X18714Y8682D01*
G01X18605Y8682D01*
G01X21500Y20882D02*
G01X21500Y20309D01*
G01X21500Y20882D02*
G01X21744Y20882D01*
G01X21827Y20855D01*
G01X21855Y20828D01*
G01X21881Y20773D01*
G01X21881Y20719D01*
G01X21855Y20663D01*
G01X21827Y20636D01*
G01X21744Y20609D01*
G01X21500Y20609D01*
G01X21690Y20609D02*
G01X21881Y20309D01*
G01X22115Y20882D02*
G01X22415Y20882D01*
G01X22252Y20663D01*
G01X22335Y20663D01*
G01X22389Y20636D01*
G01X22415Y20609D01*
G01X22443Y20528D01*
G01X22443Y20473D01*
G01X22415Y20390D01*
G01X22361Y20336D01*
G01X22280Y20309D01*
G01X22197Y20309D01*
G01X22115Y20336D01*
G01X22089Y20363D01*
G01X22061Y20419D01*
G01X22623Y20773D02*
G01X22677Y20800D01*
G01X22760Y20882D01*
G01X22760Y20309D01*
G01X21400Y16282D02*
G01X21400Y15709D01*
G01X21400Y16282D02*
G01X21644Y16282D01*
G01X21727Y16255D01*
G01X21755Y16228D01*
G01X21781Y16173D01*
G01X21781Y16119D01*
G01X21755Y16063D01*
G01X21727Y16036D01*
G01X21644Y16009D01*
G01X21400Y16009D01*
G01X21590Y16009D02*
G01X21781Y15709D01*
G01X22015Y16282D02*
G01X22315Y16282D01*
G01X22152Y16063D01*
G01X22235Y16063D01*
G01X22289Y16036D01*
G01X22315Y16009D01*
G01X22343Y15928D01*
G01X22343Y15873D01*
G01X22315Y15790D01*
G01X22261Y15736D01*
G01X22180Y15709D01*
G01X22097Y15709D01*
G01X22015Y15736D01*
G01X21989Y15763D01*
G01X21961Y15819D01*
G01X22551Y16146D02*
G01X22551Y16173D01*
G01X22577Y16228D01*
G01X22605Y16255D01*
G01X22660Y16282D01*
G01X22768Y16282D01*
G01X22823Y16255D01*
G01X22851Y16228D01*
G01X22877Y16173D01*
G01X22877Y16119D01*
G01X22851Y16063D01*
G01X22796Y15982D01*
G01X22523Y15709D01*
G01X22905Y15709D01*
G01X21300Y11682D02*
G01X21300Y11109D01*
G01X21300Y11682D02*
G01X21544Y11682D01*
G01X21627Y11655D01*
G01X21655Y11628D01*
G01X21681Y11573D01*
G01X21681Y11519D01*
G01X21655Y11463D01*
G01X21627Y11436D01*
G01X21544Y11409D01*
G01X21300Y11409D01*
G01X21490Y11409D02*
G01X21681Y11109D01*
G01X21915Y11682D02*
G01X22215Y11682D01*
G01X22052Y11463D01*
G01X22135Y11463D01*
G01X22189Y11436D01*
G01X22215Y11409D01*
G01X22243Y11328D01*
G01X22243Y11273D01*
G01X22215Y11190D01*
G01X22161Y11136D01*
G01X22080Y11109D01*
G01X21997Y11109D01*
G01X21915Y11136D01*
G01X21889Y11163D01*
G01X21861Y11219D01*
G01X22477Y11682D02*
G01X22777Y11682D01*
G01X22614Y11463D01*
G01X22696Y11463D01*
G01X22751Y11436D01*
G01X22777Y11409D01*
G01X22805Y11328D01*
G01X22805Y11273D01*
G01X22777Y11190D01*
G01X22723Y11136D01*
G01X22642Y11109D01*
G01X22560Y11109D01*
G01X22477Y11136D01*
G01X22451Y11163D01*
G01X22423Y11219D01*
G01X21300Y7182D02*
G01X21300Y6609D01*
G01X21300Y7182D02*
G01X21544Y7182D01*
G01X21627Y7155D01*
G01X21655Y7128D01*
G01X21681Y7073D01*
G01X21681Y7019D01*
G01X21655Y6963D01*
G01X21627Y6936D01*
G01X21544Y6909D01*
G01X21300Y6909D01*
G01X21490Y6909D02*
G01X21681Y6609D01*
G01X21915Y7182D02*
G01X22215Y7182D01*
G01X22052Y6963D01*
G01X22135Y6963D01*
G01X22189Y6936D01*
G01X22215Y6909D01*
G01X22243Y6828D01*
G01X22243Y6773D01*
G01X22215Y6690D01*
G01X22161Y6636D01*
G01X22080Y6609D01*
G01X21997Y6609D01*
G01X21915Y6636D01*
G01X21889Y6663D01*
G01X21861Y6719D01*
G01X22696Y7182D02*
G01X22423Y6800D01*
G01X22832Y6800D01*
G01X22696Y7182D02*
G01X22696Y6609D01*
G01X12399Y37100D02*
G01X12399Y36691D01*
G01X12426Y36609D01*
G01X12481Y36555D01*
G01X12563Y36528D01*
G01X12617Y36528D01*
G01X12699Y36555D01*
G01X12754Y36609D01*
G01X12781Y36691D01*
G01X12781Y37100D01*
G01X12988Y36964D02*
G01X12988Y36991D01*
G01X13015Y37046D01*
G01X13043Y37073D01*
G01X13097Y37100D01*
G01X13206Y37100D01*
G01X13261Y37073D01*
G01X13288Y37046D01*
G01X13315Y36991D01*
G01X13315Y36937D01*
G01X13288Y36882D01*
G01X13234Y36800D01*
G01X12961Y36528D01*
G01X13343Y36528D01*
G54D10*
G75*
G01X42800Y10600D02*
G3X42800Y8200I-868J-1200D01*
G01*
G75*
G01X44300Y20200D02*
G3X44300Y17800I-868J-1200D01*
G01*
G75*
G01X43800Y29100D02*
G3X43800Y26700I-868J-1200D01*
G01*
G75*
G01X44300Y37600D02*
G3X44300Y35200I-868J-1200D01*
G01*
G75*
G01X47700Y8750D02*
G2X47700Y10250I-1000J750D01*
G01*
G75*
G01X47500Y17650D02*
G2X47500Y19150I-1000J750D01*
G01*
G75*
G01X47400Y26550D02*
G2X47400Y28050I-1000J750D01*
G01*
G75*
G01X47600Y35250D02*
G2X47600Y36750I-1000J750D01*
G01*
G75*
G01X19825Y37712D02*
G3X19825Y37740I1575J14D01*
G01*
G75*
G01X28625Y36112D02*
G3X28625Y36140I1575J14D01*
G01*
G75*
G01X13100Y17900D02*
G2X12300Y17900I-400J0D01*
G01*
G75*
G01X17100Y21150D02*
G2X17100Y19650I1000J-750D01*
G01*
G75*
G01X17100Y16750D02*
G2X17100Y15250I1000J-750D01*
G01*
G75*
G01X17000Y12250D02*
G2X17000Y10750I1000J-750D01*
G01*
G75*
G01X17000Y7350D02*
G2X17000Y5850I1000J-750D01*
G01*
G75*
G01X47450Y40300D02*
G03X47450Y40300I-1750J0D01*
G01*
G75*
G01X47700Y9500D02*
G03X47700Y9500I-1000J0D01*
G01*
G75*
G01X47500Y18400D02*
G03X47500Y18400I-1000J0D01*
G01*
G75*
G01X47400Y27300D02*
G03X47400Y27300I-1000J0D01*
G01*
G75*
G01X47600Y36000D02*
G03X47600Y36000I-1000J0D01*
G01*
G75*
G01X28210Y30200D02*
G03X28210Y30200I-710J0D01*
G01*
G75*
G01X19100Y20400D02*
G03X19100Y20400I-1000J0D01*
G01*
G75*
G01X19100Y16000D02*
G03X19100Y16000I-1000J0D01*
G01*
G75*
G01X19000Y11500D02*
G03X19000Y11500I-1000J0D01*
G01*
G75*
G01X19000Y6600D02*
G03X19000Y6600I-1000J0D01*
G01*
G75*
G01X12300Y35600D02*
G03X12300Y35600I-100J0D01*
G01*
G36*
G01X20260Y38821D02*
G01X22450Y38821D01*
G01X22489Y38862D01*
G01X22360Y38991D01*
G01X22260Y38991D01*
G01X22089Y39162D01*
G01X21900Y39162D01*
G01X21789Y39271D01*
G01X21589Y39271D01*
G01X21575Y39287D01*
G01X21195Y39287D01*
G01X21150Y39241D01*
G01X20960Y39241D01*
G01X20260Y38821D01*
G37*
G36*
G01X29060Y37221D02*
G01X31250Y37221D01*
G01X31289Y37262D01*
G01X31160Y37391D01*
G01X31060Y37391D01*
G01X30889Y37562D01*
G01X30700Y37562D01*
G01X30589Y37671D01*
G01X30389Y37671D01*
G01X30375Y37687D01*
G01X29995Y37687D01*
G01X29950Y37641D01*
G01X29760Y37641D01*
G01X29060Y37221D01*
G37*
M00*
M02*
